<?xml version="1.0" encoding="us-ascii" standalone="no"?><svg xmlns="http://www.w3.org/2000/svg" xmlns:xlink="http://www.w3.org/1999/xlink" contentStyleType="text/css" height="1812.5px" preserveAspectRatio="none" style="width:1267px;height:1812px;background:#FFFFFF;" version="1.1" viewBox="0 0 1267 1812" width="1267.1875px" zoomAndPan="magnify"><defs/><g><!--cluster Dominio 5: Reservas--><g id="cluster_Dominio 5: Reservas"><rect fill="none" height="1112.5" rx="3.9063" ry="3.9063" style="stroke:#000000;stroke-width:2.34375;" width="904.6875" x="10.9375" y="10.9375"/><text fill="#000000" font-family="Arial" font-size="21.875" font-weight="bold" lengthAdjust="spacing" textLength="225" x="350.7813" y="34.581">Dominio 5: Reservas</text></g><!--class booking_locks--><g id="elem_booking_locks"><rect codeLine="15" fill="#F1F1F1" height="292.1661" id="booking_locks" rx="3.9063" ry="3.9063" style="stroke:#181818;stroke-width:0.78125;" width="331.25" x="56.25" y="186.7188"/><text fill="#000000" font-family="Arial" font-size="21.875" lengthAdjust="spacing" textLength="140.625" x="151.5625" y="215.0497">booking_locks</text><line style="stroke:#181818;stroke-width:0.78125;" x1="57.8125" x2="385.9375" y1="227.4979" y2="227.4979"/><ellipse cx="73.4375" cy="248.6687" fill="#000000" rx="4.6875" ry="4.6875" style="stroke:#000000;stroke-width:1.5625;"/><text fill="#000000" font-family="Arial" font-size="21.875" lengthAdjust="spacing" textLength="143.75" x="87.5" y="254.2664">id : UUID &#171;PK&#187;</text><line style="stroke:#181818;stroke-width:1.5625;" x1="57.8125" x2="385.9375" y1="265.152" y2="265.152"/><text fill="#000000" font-family="Arial" font-size="21.875" lengthAdjust="spacing" textLength="243.75" x="65.625" y="291.9205">resource_id : UUID &#171;FK&#187;</text><text fill="#000000" font-family="Arial" font-size="21.875" lengthAdjust="spacing" textLength="254.6875" x="65.625" y="317.0746">starts_at : TIMESTAMPTZ</text><text fill="#000000" font-family="Arial" font-size="21.875" lengthAdjust="spacing" textLength="248.4375" x="65.625" y="342.2287">ends_at : TIMESTAMPTZ</text><text fill="#000000" font-family="Arial" font-size="21.875" lengthAdjust="spacing" textLength="256.25" x="65.625" y="367.3828">lock_type : VARCHAR(30)</text><text fill="#000000" font-family="Arial" font-size="21.875" lengthAdjust="spacing" textLength="243.75" x="65.625" y="392.5369">reason : VARCHAR(255)</text><text fill="#000000" font-family="Arial" font-size="21.875" lengthAdjust="spacing" textLength="312.5" x="65.625" y="417.691">locked_by_user_id : UUID &#171;FK&#187;</text><text fill="#000000" font-family="Arial" font-size="21.875" lengthAdjust="spacing" textLength="264.0625" x="65.625" y="442.8452">locked_at : TIMESTAMPTZ</text><text fill="#000000" font-family="Arial" font-size="21.875" lengthAdjust="spacing" textLength="270.3125" x="65.625" y="467.9993">expires_at : TIMESTAMPTZ</text></g><!--class bookings--><g id="elem_bookings"><rect codeLine="28" fill="#F1F1F1" height="443.0908" id="bookings" rx="3.9063" ry="3.9063" style="stroke:#181818;stroke-width:0.78125;" width="371.875" x="35.9375" y="654.6875"/><text fill="#000000" font-family="Arial" font-size="21.875" lengthAdjust="spacing" textLength="89.0625" x="177.3438" y="683.0185">bookings</text><line style="stroke:#181818;stroke-width:0.78125;" x1="37.5" x2="406.25" y1="695.4666" y2="695.4666"/><ellipse cx="53.125" cy="716.6374" fill="#000000" rx="4.6875" ry="4.6875" style="stroke:#000000;stroke-width:1.5625;"/><text fill="#000000" font-family="Arial" font-size="21.875" lengthAdjust="spacing" textLength="143.75" x="67.1875" y="722.2351">id : UUID &#171;PK&#187;</text><line style="stroke:#181818;stroke-width:1.5625;" x1="37.5" x2="406.25" y1="733.1207" y2="733.1207"/><text fill="#000000" font-family="Arial" font-size="21.875" lengthAdjust="spacing" textLength="218.75" x="45.3125" y="759.8892">tenant_id : UUID &#171;FK&#187;</text><text fill="#000000" font-family="Arial" font-size="21.875" lengthAdjust="spacing" textLength="225" x="45.3125" y="785.0433">branch_id : UUID &#171;FK&#187;</text><text fill="#000000" font-family="Arial" font-size="21.875" lengthAdjust="spacing" textLength="226.5625" x="45.3125" y="810.1974">service_id : UUID &#171;FK&#187;</text><text fill="#000000" font-family="Arial" font-size="21.875" lengthAdjust="spacing" textLength="246.875" x="45.3125" y="835.3516">customer_id : UUID &#171;FK&#187;</text><text fill="#000000" font-family="Arial" font-size="21.875" lengthAdjust="spacing" textLength="254.6875" x="45.3125" y="860.5057">starts_at : TIMESTAMPTZ</text><text fill="#000000" font-family="Arial" font-size="21.875" lengthAdjust="spacing" textLength="248.4375" x="45.3125" y="885.6598">ends_at : TIMESTAMPTZ</text><text fill="#000000" font-family="Arial" font-size="21.875" lengthAdjust="spacing" textLength="353.125" x="45.3125" y="910.8139">customer_timezone : VARCHAR(50)</text><text fill="#000000" font-family="Arial" font-size="21.875" lengthAdjust="spacing" textLength="221.875" x="45.3125" y="935.968">status : VARCHAR(20)</text><text fill="#000000" font-family="Arial" font-size="21.875" lengthAdjust="spacing" textLength="320.3125" x="45.3125" y="961.1221">source_channel : VARCHAR(50)</text><text fill="#000000" font-family="Arial" font-size="21.875" lengthAdjust="spacing" textLength="128.125" x="45.3125" y="986.2762">notes : TEXT</text><text fill="#000000" font-family="Arial" font-size="21.875" lengthAdjust="spacing" textLength="214.0625" x="45.3125" y="1011.4304">custom_data : JSONB</text><text fill="#000000" font-family="Arial" font-size="21.875" lengthAdjust="spacing" textLength="237.5" x="45.3125" y="1036.5845">created_by : UUID &#171;FK&#187;</text><text fill="#000000" font-family="Arial" font-size="21.875" lengthAdjust="spacing" textLength="275" x="45.3125" y="1061.7386">created_at : TIMESTAMPTZ</text><text fill="#000000" font-family="Arial" font-size="21.875" lengthAdjust="spacing" textLength="281.25" x="45.3125" y="1086.8927">updated_at : TIMESTAMPTZ</text></g><!--class booking_resource_allocations--><g id="elem_booking_resource_allocations"><rect codeLine="47" fill="#F1F1F1" height="116.0873" id="booking_resource_allocations" rx="3.9063" ry="3.9063" style="stroke:#181818;stroke-width:0.78125;" width="325" x="533.5938" y="65.625"/><text fill="#000000" font-family="Arial" font-size="21.875" lengthAdjust="spacing" textLength="295.3125" x="548.4375" y="93.956">booking_resource_allocations</text><line style="stroke:#181818;stroke-width:0.78125;" x1="535.1563" x2="857.0313" y1="106.4041" y2="106.4041"/><ellipse cx="550.7813" cy="127.5749" fill="#000000" rx="4.6875" ry="4.6875" style="stroke:#000000;stroke-width:1.5625;"/><text fill="#000000" font-family="Arial" font-size="21.875" lengthAdjust="spacing" textLength="275" x="564.8438" y="133.1726">booking_id : UUID &#171;PK, FK&#187;</text><ellipse cx="550.7813" cy="152.729" fill="#000000" rx="4.6875" ry="4.6875" style="stroke:#000000;stroke-width:1.5625;"/><text fill="#000000" font-family="Arial" font-size="21.875" lengthAdjust="spacing" textLength="284.375" x="564.8438" y="158.3267">resource_id : UUID &#171;PK, FK&#187;</text><line style="stroke:#181818;stroke-width:0.78125;" x1="535.1563" x2="857.0313" y1="169.2123" y2="169.2123"/></g><!--class booking_status_history--><g id="elem_booking_status_history"><rect codeLine="52" fill="#F1F1F1" height="241.8579" id="booking_status_history" rx="3.9063" ry="3.9063" style="stroke:#181818;stroke-width:0.78125;" width="353.125" x="519.5313" y="508.5938"/><text fill="#000000" font-family="Arial" font-size="21.875" lengthAdjust="spacing" textLength="228.125" x="582.0313" y="536.9247">booking_status_history</text><line style="stroke:#181818;stroke-width:0.78125;" x1="521.0938" x2="871.0938" y1="549.3729" y2="549.3729"/><ellipse cx="536.7188" cy="570.5437" fill="#000000" rx="4.6875" ry="4.6875" style="stroke:#000000;stroke-width:1.5625;"/><text fill="#000000" font-family="Arial" font-size="21.875" lengthAdjust="spacing" textLength="143.75" x="550.7813" y="576.1414">id : UUID &#171;PK&#187;</text><line style="stroke:#181818;stroke-width:1.5625;" x1="521.0938" x2="871.0938" y1="587.027" y2="587.027"/><text fill="#000000" font-family="Arial" font-size="21.875" lengthAdjust="spacing" textLength="234.375" x="528.9063" y="613.7955">booking_id : UUID &#171;FK&#187;</text><text fill="#000000" font-family="Arial" font-size="21.875" lengthAdjust="spacing" textLength="318.75" x="528.9063" y="638.9496">previous_status : VARCHAR(20)</text><text fill="#000000" font-family="Arial" font-size="21.875" lengthAdjust="spacing" textLength="273.4375" x="528.9063" y="664.1037">new_status : VARCHAR(20)</text><text fill="#000000" font-family="Arial" font-size="21.875" lengthAdjust="spacing" textLength="243.75" x="528.9063" y="689.2578">reason : VARCHAR(255)</text><text fill="#000000" font-family="Arial" font-size="21.875" lengthAdjust="spacing" textLength="334.375" x="528.9063" y="714.4119">changed_by_user_id : UUID &#171;FK&#187;</text><text fill="#000000" font-family="Arial" font-size="21.875" lengthAdjust="spacing" textLength="285.9375" x="528.9063" y="739.566">changed_at : TIMESTAMPTZ</text></g><!--class booking_cancellations--><g id="elem_booking_cancellations"><rect codeLine="63" fill="#F1F1F1" height="216.7038" id="booking_cancellations" rx="3.9063" ry="3.9063" style="stroke:#181818;stroke-width:0.78125;" width="360.9375" x="515.625" y="236.7188"/><text fill="#000000" font-family="Arial" font-size="21.875" lengthAdjust="spacing" textLength="218.75" x="586.7188" y="265.0497">booking_cancellations</text><line style="stroke:#181818;stroke-width:0.78125;" x1="517.1875" x2="875" y1="277.4979" y2="277.4979"/><ellipse cx="532.8125" cy="298.6687" fill="#000000" rx="4.6875" ry="4.6875" style="stroke:#000000;stroke-width:1.5625;"/><text fill="#000000" font-family="Arial" font-size="21.875" lengthAdjust="spacing" textLength="143.75" x="546.875" y="304.2664">id : UUID &#171;PK&#187;</text><line style="stroke:#181818;stroke-width:1.5625;" x1="517.1875" x2="875" y1="315.152" y2="315.152"/><text fill="#000000" font-family="Arial" font-size="21.875" lengthAdjust="spacing" textLength="278.125" x="525" y="341.9205">booking_id : UUID &#171;FK, UQ&#187;</text><text fill="#000000" font-family="Arial" font-size="21.875" lengthAdjust="spacing" textLength="292.1875" x="525" y="367.0746">reason_code : VARCHAR(50)</text><text fill="#000000" font-family="Arial" font-size="21.875" lengthAdjust="spacing" textLength="181.25" x="525" y="392.2287">description : TEXT</text><text fill="#000000" font-family="Arial" font-size="21.875" lengthAdjust="spacing" textLength="342.1875" x="525" y="417.3828">cancelled_by_user_id : UUID &#171;FK&#187;</text><text fill="#000000" font-family="Arial" font-size="21.875" lengthAdjust="spacing" textLength="293.75" x="525" y="442.5369">cancelled_at : TIMESTAMPTZ</text></g><!--class booking_reschedules--><g id="elem_booking_reschedules"><rect codeLine="73" fill="#F1F1F1" height="292.1661" id="booking_reschedules" rx="3.9063" ry="3.9063" style="stroke:#181818;stroke-width:0.78125;" width="389.0625" x="501.5625" y="805.4688"/><text fill="#000000" font-family="Arial" font-size="21.875" lengthAdjust="spacing" textLength="210.9375" x="590.625" y="833.7997">booking_reschedules</text><line style="stroke:#181818;stroke-width:0.78125;" x1="503.125" x2="889.0625" y1="846.2479" y2="846.2479"/><ellipse cx="518.75" cy="867.4187" fill="#000000" rx="4.6875" ry="4.6875" style="stroke:#000000;stroke-width:1.5625;"/><text fill="#000000" font-family="Arial" font-size="21.875" lengthAdjust="spacing" textLength="143.75" x="532.8125" y="873.0164">id : UUID &#171;PK&#187;</text><line style="stroke:#181818;stroke-width:1.5625;" x1="503.125" x2="889.0625" y1="883.902" y2="883.902"/><text fill="#000000" font-family="Arial" font-size="21.875" lengthAdjust="spacing" textLength="234.375" x="510.9375" y="910.6705">booking_id : UUID &#171;FK&#187;</text><text fill="#000000" font-family="Arial" font-size="21.875" lengthAdjust="spacing" textLength="339.0625" x="510.9375" y="935.8246">original_starts_at : TIMESTAMPTZ</text><text fill="#000000" font-family="Arial" font-size="21.875" lengthAdjust="spacing" textLength="332.8125" x="510.9375" y="960.9787">original_ends_at : TIMESTAMPTZ</text><text fill="#000000" font-family="Arial" font-size="21.875" lengthAdjust="spacing" textLength="306.25" x="510.9375" y="986.1328">new_starts_at : TIMESTAMPTZ</text><text fill="#000000" font-family="Arial" font-size="21.875" lengthAdjust="spacing" textLength="300" x="510.9375" y="1011.2869">new_ends_at : TIMESTAMPTZ</text><text fill="#000000" font-family="Arial" font-size="21.875" lengthAdjust="spacing" textLength="243.75" x="510.9375" y="1036.441">reason : VARCHAR(255)</text><text fill="#000000" font-family="Arial" font-size="21.875" lengthAdjust="spacing" textLength="370.3125" x="510.9375" y="1061.5952">rescheduled_by_user_id : UUID &#171;FK&#187;</text><text fill="#000000" font-family="Arial" font-size="21.875" lengthAdjust="spacing" textLength="275" x="510.9375" y="1086.7493">created_at : TIMESTAMPTZ</text></g><!--class resources--><g id="elem_resources"><rect fill="#F1F1F1" height="65.7791" id="resources" rx="3.9063" ry="3.9063" style="stroke:#181818;stroke-width:0.78125;" width="107.8125" x="984.375" y="20.3125"/><text fill="#000000" font-family="Arial" font-size="21.875" lengthAdjust="spacing" textLength="98.4375" x="989.0625" y="48.6435">resources</text><line style="stroke:#181818;stroke-width:0.78125;" x1="985.9375" x2="1090.625" y1="61.0916" y2="61.0916"/><line style="stroke:#181818;stroke-width:0.78125;" x1="985.9375" x2="1090.625" y1="73.5916" y2="73.5916"/></g><!--class users--><g id="elem_users"><rect fill="#F1F1F1" height="65.7791" id="users" rx="3.9063" ry="3.9063" style="stroke:#181818;stroke-width:0.78125;" width="64.0625" x="1006.25" y="918.75"/><text fill="#000000" font-family="Arial" font-size="21.875" lengthAdjust="spacing" textLength="54.6875" x="1010.9375" y="947.081">users</text><line style="stroke:#181818;stroke-width:0.78125;" x1="1007.8125" x2="1068.75" y1="959.5291" y2="959.5291"/><line style="stroke:#181818;stroke-width:0.78125;" x1="1007.8125" x2="1068.75" y1="972.0291" y2="972.0291"/></g><!--class tenants--><g id="elem_tenants"><rect fill="#F1F1F1" height="65.7791" id="tenants" rx="3.9063" ry="3.9063" style="stroke:#181818;stroke-width:0.78125;" width="82.8125" x="654.6875" y="1615.625"/><text fill="#000000" font-family="Arial" font-size="21.875" lengthAdjust="spacing" textLength="73.4375" x="659.375" y="1643.956">tenants</text><line style="stroke:#181818;stroke-width:0.78125;" x1="656.25" x2="735.9375" y1="1656.4041" y2="1656.4041"/><line style="stroke:#181818;stroke-width:0.78125;" x1="656.25" x2="735.9375" y1="1668.9041" y2="1668.9041"/></g><!--class branches--><g id="elem_branches"><rect fill="#F1F1F1" height="65.7791" id="branches" rx="3.9063" ry="3.9063" style="stroke:#181818;stroke-width:0.78125;" width="101.5625" x="645.3125" y="1735.9375"/><text fill="#000000" font-family="Arial" font-size="21.875" lengthAdjust="spacing" textLength="92.1875" x="650" y="1764.2685">branches</text><line style="stroke:#181818;stroke-width:0.78125;" x1="646.875" x2="745.3125" y1="1776.7166" y2="1776.7166"/><line style="stroke:#181818;stroke-width:0.78125;" x1="646.875" x2="745.3125" y1="1789.2166" y2="1789.2166"/></g><!--class services--><g id="elem_services"><rect fill="#F1F1F1" height="65.7791" id="services" rx="3.9063" ry="3.9063" style="stroke:#181818;stroke-width:0.78125;" width="90.625" x="650.7813" y="1264.0625"/><text fill="#000000" font-family="Arial" font-size="21.875" lengthAdjust="spacing" textLength="81.25" x="655.4688" y="1292.3935">services</text><line style="stroke:#181818;stroke-width:0.78125;" x1="652.3438" x2="739.8438" y1="1304.8416" y2="1304.8416"/><line style="stroke:#181818;stroke-width:0.78125;" x1="652.3438" x2="739.8438" y1="1317.3416" y2="1317.3416"/></g><!--class customers--><g id="elem_customers"><rect fill="#F1F1F1" height="65.7791" id="customers" rx="3.9063" ry="3.9063" style="stroke:#181818;stroke-width:0.78125;" width="110.9375" x="640.625" y="1384.375"/><text fill="#000000" font-family="Arial" font-size="21.875" lengthAdjust="spacing" textLength="101.5625" x="645.3125" y="1412.706">customers</text><line style="stroke:#181818;stroke-width:0.78125;" x1="642.1875" x2="750" y1="1425.1541" y2="1425.1541"/><line style="stroke:#181818;stroke-width:0.78125;" x1="642.1875" x2="750" y1="1437.6541" y2="1437.6541"/></g><!--link bookings to booking_resource_allocations--><g id="link_bookings_booking_resource_allocations"><path codeLine="87" d="M395.3125,642.1719 C395.3125,420.0156 395.3125,123.4375 395.3125,123.4375 C395.3125,123.4375 434.3906,123.4375 505.25,123.4375 " fill="none" id="bookings-booking_resource_allocations" style="stroke:#181818;stroke-width:1.5625;"/><line style="stroke:#181818;stroke-width:1.5625;" x1="401.5625" x2="389.0625" y1="648.4219" y2="648.4219"/><line style="stroke:#181818;stroke-width:1.5625;" x1="401.5625" x2="389.0625" y1="643.7344" y2="643.7344"/><line style="stroke:#181818;stroke-width:1.5625;" x1="395.3125" x2="395.3125" y1="642.1719" y2="654.6719"/><line style="stroke:#181818;stroke-width:1.5625;" x1="520.875" x2="533.375" y1="123.4375" y2="114.0625"/><line style="stroke:#181818;stroke-width:1.5625;" x1="520.875" x2="533.375" y1="123.4375" y2="132.8125"/><line style="stroke:#181818;stroke-width:1.5625;" x1="520.875" x2="533.375" y1="123.4375" y2="123.4375"/><ellipse cx="511.5" cy="123.4375" fill="none" rx="6.25" ry="6.25" style="stroke:#181818;stroke-width:1.5625;"/><text fill="#000000" font-family="Arial" font-size="20.3125" lengthAdjust="spacing" textLength="96.875" x="396.875" y="340.631">booking_id</text></g><!--link bookings to booking_status_history--><g id="link_bookings_booking_status_history"><path codeLine="88" d="M420.4375,702.7344 C457.0313,702.7344 454.6875,702.7344 490.9688,702.7344 " fill="none" id="bookings-booking_status_history" style="stroke:#181818;stroke-width:1.5625;"/><line style="stroke:#181818;stroke-width:1.5625;" x1="414.1875" x2="414.1875" y1="708.9844" y2="696.4844"/><line style="stroke:#181818;stroke-width:1.5625;" x1="418.875" x2="418.875" y1="708.9844" y2="696.4844"/><line style="stroke:#181818;stroke-width:1.5625;" x1="420.4375" x2="407.9375" y1="702.7344" y2="702.7344"/><line style="stroke:#181818;stroke-width:1.5625;" x1="506.5938" x2="519.0938" y1="702.7344" y2="693.3594"/><line style="stroke:#181818;stroke-width:1.5625;" x1="506.5938" x2="519.0938" y1="702.7344" y2="712.1094"/><line style="stroke:#181818;stroke-width:1.5625;" x1="506.5938" x2="519.0938" y1="702.7344" y2="702.7344"/><ellipse cx="497.2188" cy="702.7344" fill="none" rx="6.25" ry="6.25" style="stroke:#181818;stroke-width:1.5625;"/><text fill="#000000" font-family="Arial" font-size="20.3125" lengthAdjust="spacing" textLength="96.875" x="365.0781" y="723.3498">booking_id</text></g><!--link bookings to booking_cancellations--><g id="link_bookings_booking_cancellations"><path codeLine="89" d="M401.5625,641.8438 C401.5625,496.2656 401.5625,345.3125 401.5625,345.3125 C401.5625,345.3125 431.0313,345.3125 492,345.3125 " fill="none" id="bookings-booking_cancellations" style="stroke:#181818;stroke-width:1.5625;"/><line style="stroke:#181818;stroke-width:1.5625;" x1="407.8125" x2="395.3125" y1="648.0938" y2="648.0938"/><line style="stroke:#181818;stroke-width:1.5625;" x1="407.8125" x2="395.3125" y1="643.4063" y2="643.4063"/><line style="stroke:#181818;stroke-width:1.5625;" x1="401.5625" x2="401.5625" y1="641.8438" y2="654.3438"/><line style="stroke:#181818;stroke-width:1.5625;" x1="498.25" x2="515.4375" y1="345.3125" y2="345.3125"/><ellipse cx="498.25" cy="345.3125" fill="none" rx="6.25" ry="6.25" style="stroke:#181818;stroke-width:1.5625;"/><line style="stroke:#181818;stroke-width:1.5625;" x1="509.1875" x2="509.1875" y1="339.0625" y2="351.5625"/><text fill="#000000" font-family="Arial" font-size="20.3125" lengthAdjust="spacing" textLength="96.875" x="403.125" y="463.506">booking_id</text></g><!--link bookings to booking_reschedules--><g id="link_bookings_booking_reschedules"><path codeLine="90" d="M420.4375,951.5625 C451.0625,951.5625 442.25,951.5625 473.0781,951.5625 " fill="none" id="bookings-booking_reschedules" style="stroke:#181818;stroke-width:1.5625;"/><line style="stroke:#181818;stroke-width:1.5625;" x1="414.1875" x2="414.1875" y1="957.8125" y2="945.3125"/><line style="stroke:#181818;stroke-width:1.5625;" x1="418.875" x2="418.875" y1="957.8125" y2="945.3125"/><line style="stroke:#181818;stroke-width:1.5625;" x1="420.4375" x2="407.9375" y1="951.5625" y2="951.5625"/><line style="stroke:#181818;stroke-width:1.5625;" x1="488.7031" x2="501.2031" y1="951.5625" y2="942.1875"/><line style="stroke:#181818;stroke-width:1.5625;" x1="488.7031" x2="501.2031" y1="951.5625" y2="960.9375"/><line style="stroke:#181818;stroke-width:1.5625;" x1="488.7031" x2="501.2031" y1="951.5625" y2="951.5625"/><ellipse cx="479.3281" cy="951.5625" fill="none" rx="6.25" ry="6.25" style="stroke:#181818;stroke-width:1.5625;"/><text fill="#000000" font-family="Arial" font-size="20.3125" lengthAdjust="spacing" textLength="96.875" x="356.125" y="972.1779">booking_id</text></g><!--link resources to booking_locks--><g id="link_resources_booking_locks"><path codeLine="91" d="M995.3125,98.4844 C995.3125,144.9375 995.3125,211.7188 995.3125,211.7188 C995.3125,211.7188 643.1875,211.7188 415.9219,211.7188 " fill="none" id="resources-booking_locks" style="stroke:#181818;stroke-width:1.5625;"/><line style="stroke:#181818;stroke-width:1.5625;" x1="989.0625" x2="1001.5625" y1="92.2344" y2="92.2344"/><line style="stroke:#181818;stroke-width:1.5625;" x1="989.0625" x2="1001.5625" y1="96.9219" y2="96.9219"/><line style="stroke:#181818;stroke-width:1.5625;" x1="995.3125" x2="995.3125" y1="98.4844" y2="85.9844"/><line style="stroke:#181818;stroke-width:1.5625;" x1="400.2969" x2="387.7969" y1="211.7188" y2="221.0938"/><line style="stroke:#181818;stroke-width:1.5625;" x1="400.2969" x2="387.7969" y1="211.7188" y2="202.3438"/><line style="stroke:#181818;stroke-width:1.5625;" x1="400.2969" x2="387.7969" y1="211.7188" y2="211.7188"/><ellipse cx="409.6719" cy="211.7188" fill="none" rx="6.25" ry="6.25" style="stroke:#181818;stroke-width:1.5625;"/><text fill="#000000" font-family="Arial" font-size="20.3125" lengthAdjust="spacing" textLength="104.6875" x="648.1719" y="232.3341">resource_id</text></g><!--link booking_resource_allocations to resources--><g id="link_booking_resource_allocations_resources"><path codeLine="92" d="M886.7969,75.7813 C932.1406,75.7813 937.6719,75.7813 971.8438,75.7813 " fill="none" id="booking_resource_allocations-resources" style="stroke:#181818;stroke-width:1.5625;"/><line style="stroke:#181818;stroke-width:1.5625;" x1="871.1719" x2="858.6719" y1="75.7813" y2="85.1563"/><line style="stroke:#181818;stroke-width:1.5625;" x1="871.1719" x2="858.6719" y1="75.7813" y2="66.4063"/><line style="stroke:#181818;stroke-width:1.5625;" x1="871.1719" x2="858.6719" y1="75.7813" y2="75.7813"/><ellipse cx="880.5469" cy="75.7813" fill="none" rx="6.25" ry="6.25" style="stroke:#181818;stroke-width:1.5625;"/><line style="stroke:#181818;stroke-width:1.5625;" x1="978.0938" x2="978.0938" y1="69.5313" y2="82.0313"/><line style="stroke:#181818;stroke-width:1.5625;" x1="973.4063" x2="973.4063" y1="69.5313" y2="82.0313"/><line style="stroke:#181818;stroke-width:1.5625;" x1="971.8438" x2="984.3438" y1="75.7813" y2="75.7813"/><text fill="#000000" font-family="Arial" font-size="20.3125" lengthAdjust="spacing" textLength="104.6875" x="923.0625" y="96.3966">resource_id</text></g><!--link booking_status_history to users--><g id="link_booking_status_history_users"><path codeLine="93" d="M900.9531,629.6875 C982.25,629.6875 1032.8125,629.6875 1032.8125,629.6875 C1032.8125,629.6875 1032.8125,823.5938 1032.8125,905.8281 " fill="none" id="booking_status_history-users" style="stroke:#181818;stroke-width:1.5625;"/><line style="stroke:#181818;stroke-width:1.5625;" x1="885.3281" x2="872.8281" y1="629.6875" y2="639.0625"/><line style="stroke:#181818;stroke-width:1.5625;" x1="885.3281" x2="872.8281" y1="629.6875" y2="620.3125"/><line style="stroke:#181818;stroke-width:1.5625;" x1="885.3281" x2="872.8281" y1="629.6875" y2="629.6875"/><ellipse cx="894.7031" cy="629.6875" fill="none" rx="6.25" ry="6.25" style="stroke:#181818;stroke-width:1.5625;"/><line style="stroke:#181818;stroke-width:1.5625;" x1="1039.0625" x2="1026.5625" y1="912.0781" y2="912.0781"/><line style="stroke:#181818;stroke-width:1.5625;" x1="1039.0625" x2="1026.5625" y1="907.3906" y2="907.3906"/><line style="stroke:#181818;stroke-width:1.5625;" x1="1032.8125" x2="1032.8125" y1="905.8281" y2="918.3281"/><text fill="#000000" font-family="Arial" font-size="20.3125" lengthAdjust="spacing" textLength="185.9375" x="1034.375" y="714.631">changed_by_user_id</text></g><!--link booking_cancellations to users--><g id="link_booking_cancellations_users"><path codeLine="94" d="M905.0781,345.3125 C995.5,345.3125 1057.8125,345.3125 1057.8125,345.3125 C1057.8125,345.3125 1057.8125,779.5313 1057.8125,906.0313 " fill="none" id="booking_cancellations-users" style="stroke:#181818;stroke-width:1.5625;"/><line style="stroke:#181818;stroke-width:1.5625;" x1="889.4531" x2="876.9531" y1="345.3125" y2="354.6875"/><line style="stroke:#181818;stroke-width:1.5625;" x1="889.4531" x2="876.9531" y1="345.3125" y2="335.9375"/><line style="stroke:#181818;stroke-width:1.5625;" x1="889.4531" x2="876.9531" y1="345.3125" y2="345.3125"/><ellipse cx="898.8281" cy="345.3125" fill="none" rx="6.25" ry="6.25" style="stroke:#181818;stroke-width:1.5625;"/><line style="stroke:#181818;stroke-width:1.5625;" x1="1064.0625" x2="1051.5625" y1="912.2813" y2="912.2813"/><line style="stroke:#181818;stroke-width:1.5625;" x1="1064.0625" x2="1051.5625" y1="907.5938" y2="907.5938"/><line style="stroke:#181818;stroke-width:1.5625;" x1="1057.8125" x2="1057.8125" y1="906.0313" y2="918.5313"/><text fill="#000000" font-family="Arial" font-size="20.3125" lengthAdjust="spacing" textLength="195.3125" x="1059.375" y="562.1154">cancelled_by_user_id</text></g><!--link booking_reschedules to users--><g id="link_booking_reschedules_users"><path codeLine="95" d="M918.8125,951.5625 C963.6406,951.5625 965.6719,951.5625 993.4844,951.5625 " fill="none" id="booking_reschedules-users" style="stroke:#181818;stroke-width:1.5625;"/><line style="stroke:#181818;stroke-width:1.5625;" x1="903.1875" x2="890.6875" y1="951.5625" y2="960.9375"/><line style="stroke:#181818;stroke-width:1.5625;" x1="903.1875" x2="890.6875" y1="951.5625" y2="942.1875"/><line style="stroke:#181818;stroke-width:1.5625;" x1="903.1875" x2="890.6875" y1="951.5625" y2="951.5625"/><ellipse cx="912.5625" cy="951.5625" fill="none" rx="6.25" ry="6.25" style="stroke:#181818;stroke-width:1.5625;"/><line style="stroke:#181818;stroke-width:1.5625;" x1="999.7344" x2="999.7344" y1="945.3125" y2="957.8125"/><line style="stroke:#181818;stroke-width:1.5625;" x1="995.0469" x2="995.0469" y1="945.3125" y2="957.8125"/><line style="stroke:#181818;stroke-width:1.5625;" x1="993.4844" x2="1005.9844" y1="951.5625" y2="951.5625"/><text fill="#000000" font-family="Arial" font-size="20.3125" lengthAdjust="spacing" textLength="218.75" x="949.8906" y="972.1779">rescheduled_by_user_id</text></g><!--link booking_locks to users--><g id="link_booking_locks_users"><path codeLine="96" d="M415.6406,466.4063 C656.0938,466.4063 1045.3125,466.4063 1045.3125,466.4063 C1045.3125,466.4063 1045.3125,796.1094 1045.3125,905.7188 " fill="none" id="booking_locks-users" style="stroke:#181818;stroke-width:1.5625;"/><line style="stroke:#181818;stroke-width:1.5625;" x1="400.0156" x2="387.5156" y1="466.4063" y2="475.7813"/><line style="stroke:#181818;stroke-width:1.5625;" x1="400.0156" x2="387.5156" y1="466.4063" y2="457.0313"/><line style="stroke:#181818;stroke-width:1.5625;" x1="400.0156" x2="387.5156" y1="466.4063" y2="466.4063"/><ellipse cx="409.3906" cy="466.4063" fill="none" rx="6.25" ry="6.25" style="stroke:#181818;stroke-width:1.5625;"/><line style="stroke:#181818;stroke-width:1.5625;" x1="1051.5625" x2="1039.0625" y1="911.9688" y2="911.9688"/><line style="stroke:#181818;stroke-width:1.5625;" x1="1051.5625" x2="1039.0625" y1="907.2813" y2="907.2813"/><line style="stroke:#181818;stroke-width:1.5625;" x1="1045.3125" x2="1045.3125" y1="905.7188" y2="918.2188"/><text fill="#000000" font-family="Arial" font-size="20.3125" lengthAdjust="spacing" textLength="168.75" x="772.0156" y="487.0216">locked_by_user_id</text></g><!--link bookings to tenants--><g id="link_bookings_tenants"><path codeLine="97" d="M185.9375,1126.9063 C185.9375,1354.9375 185.9375,1648.4375 185.9375,1648.4375 C185.9375,1648.4375 520,1648.4375 641.8438,1648.4375 " fill="none" id="bookings-tenants" style="stroke:#181818;stroke-width:1.5625;"/><line style="stroke:#181818;stroke-width:1.5625;" x1="185.9375" x2="176.5625" y1="1111.2813" y2="1098.7813"/><line style="stroke:#181818;stroke-width:1.5625;" x1="185.9375" x2="195.3125" y1="1111.2813" y2="1098.7813"/><line style="stroke:#181818;stroke-width:1.5625;" x1="185.9375" x2="185.9375" y1="1111.2813" y2="1098.7813"/><ellipse cx="185.9375" cy="1120.6563" fill="none" rx="6.25" ry="6.25" style="stroke:#181818;stroke-width:1.5625;"/><line style="stroke:#181818;stroke-width:1.5625;" x1="648.0938" x2="648.0938" y1="1642.1875" y2="1654.6875"/><line style="stroke:#181818;stroke-width:1.5625;" x1="643.4063" x2="643.4063" y1="1642.1875" y2="1654.6875"/><line style="stroke:#181818;stroke-width:1.5625;" x1="641.8438" x2="654.3438" y1="1648.4375" y2="1648.4375"/><text fill="#000000" font-family="Arial" font-size="20.3125" lengthAdjust="spacing" textLength="82.8125" x="101.5625" y="1628.4279">tenant_id</text></g><!--link bookings to branches--><g id="link_bookings_branches"><path codeLine="98" d="M110.9375,1126.9531 C110.9375,1391.1875 110.9375,1768.75 110.9375,1768.75 C110.9375,1768.75 490.3281,1768.75 632.6875,1768.75 " fill="none" id="bookings-branches" style="stroke:#181818;stroke-width:1.5625;"/><line style="stroke:#181818;stroke-width:1.5625;" x1="110.9375" x2="101.5625" y1="1111.3281" y2="1098.8281"/><line style="stroke:#181818;stroke-width:1.5625;" x1="110.9375" x2="120.3125" y1="1111.3281" y2="1098.8281"/><line style="stroke:#181818;stroke-width:1.5625;" x1="110.9375" x2="110.9375" y1="1111.3281" y2="1098.8281"/><ellipse cx="110.9375" cy="1120.7031" fill="none" rx="6.25" ry="6.25" style="stroke:#181818;stroke-width:1.5625;"/><line style="stroke:#181818;stroke-width:1.5625;" x1="638.9375" x2="638.9375" y1="1762.5" y2="1775"/><line style="stroke:#181818;stroke-width:1.5625;" x1="634.25" x2="634.25" y1="1762.5" y2="1775"/><line style="stroke:#181818;stroke-width:1.5625;" x1="632.6875" x2="645.1875" y1="1768.75" y2="1768.75"/><text fill="#000000" font-family="Arial" font-size="20.3125" lengthAdjust="spacing" textLength="87.5" x="21.875" y="1721.5216">branch_id</text></g><!--link bookings to services--><g id="link_bookings_services"><path codeLine="99" d="M334.375,1127.1563 C334.375,1227.9688 334.375,1296.875 334.375,1296.875 C334.375,1296.875 540.4531,1296.875 637.7813,1296.875 " fill="none" id="bookings-services" style="stroke:#181818;stroke-width:1.5625;"/><line style="stroke:#181818;stroke-width:1.5625;" x1="334.375" x2="325" y1="1111.5313" y2="1099.0313"/><line style="stroke:#181818;stroke-width:1.5625;" x1="334.375" x2="343.75" y1="1111.5313" y2="1099.0313"/><line style="stroke:#181818;stroke-width:1.5625;" x1="334.375" x2="334.375" y1="1111.5313" y2="1099.0313"/><ellipse cx="334.375" cy="1120.9063" fill="none" rx="6.25" ry="6.25" style="stroke:#181818;stroke-width:1.5625;"/><line style="stroke:#181818;stroke-width:1.5625;" x1="644.0313" x2="644.0313" y1="1290.625" y2="1303.125"/><line style="stroke:#181818;stroke-width:1.5625;" x1="639.3438" x2="639.3438" y1="1290.625" y2="1303.125"/><line style="stroke:#181818;stroke-width:1.5625;" x1="637.7813" x2="650.2813" y1="1296.875" y2="1296.875"/><text fill="#000000" font-family="Arial" font-size="20.3125" lengthAdjust="spacing" textLength="89.0625" x="302.7813" y="1317.4904">service_id</text></g><!--link bookings to customers--><g id="link_bookings_customers"><path codeLine="100" d="M259.375,1126.9219 C259.375,1276.0313 259.375,1417.1875 259.375,1417.1875 C259.375,1417.1875 510.1094,1417.1875 627.8438,1417.1875 " fill="none" id="bookings-customers" style="stroke:#181818;stroke-width:1.5625;"/><line style="stroke:#181818;stroke-width:1.5625;" x1="259.375" x2="250" y1="1111.2969" y2="1098.7969"/><line style="stroke:#181818;stroke-width:1.5625;" x1="259.375" x2="268.75" y1="1111.2969" y2="1098.7969"/><line style="stroke:#181818;stroke-width:1.5625;" x1="259.375" x2="259.375" y1="1111.2969" y2="1098.7969"/><ellipse cx="259.375" cy="1120.6719" fill="none" rx="6.25" ry="6.25" style="stroke:#181818;stroke-width:1.5625;"/><line style="stroke:#181818;stroke-width:1.5625;" x1="634.0938" x2="634.0938" y1="1410.9375" y2="1423.4375"/><line style="stroke:#181818;stroke-width:1.5625;" x1="629.4063" x2="629.4063" y1="1410.9375" y2="1423.4375"/><line style="stroke:#181818;stroke-width:1.5625;" x1="627.8438" x2="640.3438" y1="1417.1875" y2="1417.1875"/><text fill="#000000" font-family="Arial" font-size="20.3125" lengthAdjust="spacing" textLength="110.9375" x="178.1563" y="1437.8029">customer_id</text></g><!--link bookings to users--><g id="link_bookings_users"><path codeLine="101" d="M436.1875,778.125 C672.125,778.125 1020.3125,778.125 1020.3125,778.125 C1020.3125,778.125 1020.3125,855.7031 1020.3125,906.0313 " fill="none" id="bookings-users" style="stroke:#181818;stroke-width:1.5625;"/><line style="stroke:#181818;stroke-width:1.5625;" x1="420.5625" x2="408.0625" y1="778.125" y2="787.5"/><line style="stroke:#181818;stroke-width:1.5625;" x1="420.5625" x2="408.0625" y1="778.125" y2="768.75"/><line style="stroke:#181818;stroke-width:1.5625;" x1="420.5625" x2="408.0625" y1="778.125" y2="778.125"/><ellipse cx="429.9375" cy="778.125" fill="none" rx="6.25" ry="6.25" style="stroke:#181818;stroke-width:1.5625;"/><line style="stroke:#181818;stroke-width:1.5625;" x1="1026.5625" x2="1014.0625" y1="912.2813" y2="912.2813"/><line style="stroke:#181818;stroke-width:1.5625;" x1="1026.5625" x2="1014.0625" y1="907.5938" y2="907.5938"/><line style="stroke:#181818;stroke-width:1.5625;" x1="1020.3125" x2="1020.3125" y1="906.0313" y2="918.5313"/><text fill="#000000" font-family="Arial" font-size="20.3125" lengthAdjust="spacing" textLength="100" x="682.8281" y="798.7404">created_by</text></g><!--SRC=[fLPjJzim4FwUNt5Y7pOGbM0iqbGXfF9IZKqm1cMQzYKoyP5Ok7RaE417-z_dl3PfxDADJv7yF7U-U-xEb_TmAgTCC0d-4AunHVL8Ke_ZlGOjGR4era2Pmb0pARoOKOIGgP2ZbpumaH15ff36XCed9YAu9pnj8vm9rBC4GIeTonP04mRx_bxx1Ez9nlLO2dr9fWWZnGXluGa97qY4Dth64V9uY8WwKQ3GJC_WnGCuDjn8oKpG4ycbWdVZp-FH-2H7fAAegjE3Wq_xlkyjFAzo3biMCROAbvNthJifpOrHm6NuO22IGkUau0Bi0ACmXDlRyrCuFBpwTdHK70y6nKTXAZCLOj0cZMjIgedIQK2qmIRd5sStaz75rUHtWQ6W3YI_FIYa7iBFqVN9bz7rXuEzxUe-aahH0Zxw_dPZXJIucmMPITOUJyMnn_EScDwmXcHKxQdM4MmphJGA8hGziZj5H1WxL3IrOow9mopLSkfA-FyAqFZKR8f_f6WNmgyAOJphB6qNeWRAVWXZ8WHoYwMG6dF3oTclIUkwW19DpF7Nc- -Nn-MvAROkIchBkmAj2MG9TO6sMWPD5nDkMeJaxqDt86o4fkOrgLlxNMXYtR6FIOjZZQgKE8YPaKVDEl5qeOswpnPb4s6Yy959uz5PLe5FRj0zbNaRHA-DPKtQj5oXcHNat5Ad3l86MNRXzaV5AtCBGabjOq0n3HLByliwBLt6yMhY3UqVEZMCaMOSUmrQdx-z6wJPbKmG7gnxFXgI-nsfUiRf8iVTrkwcMYRxchxkHsAHxyhc-PxF1mFvidxSXotHd9OhWxd6PkveseskQPUxOr17thCeL_gm_H9vQzDToC5WFeUbGxljIiALLLwItA8__fuzwrKxo_nujkHNxEoTuNL5MB7f_JWiLQ-OvUBEkSqAxt7A1LwMezxbFLAroNFISgdtMFNwBOHOhlSUhn6hsPFUNm00]--></g></svg>