<?xml version="1.0" encoding="us-ascii" standalone="no"?><svg xmlns="http://www.w3.org/2000/svg" xmlns:xlink="http://www.w3.org/1999/xlink" contentStyleType="text/css" height="903.125px" preserveAspectRatio="none" style="width:1242px;height:903px;background:#FFFFFF;" version="1.1" viewBox="0 0 1242 903" width="1242.1875px" zoomAndPan="magnify"><defs/><g><!--cluster Dominio 1: Organizaci?n y Seguridad--><g id="cluster_Dominio 1: Organizaci&#243;n y Seguridad"><rect fill="none" height="882.8125" rx="3.9063" ry="3.9063" style="stroke:#000000;stroke-width:2.34375;" width="1221.875" x="10.9375" y="10.9375"/><text fill="#000000" font-family="Arial" font-size="21.875" font-weight="bold" lengthAdjust="spacing" textLength="400" x="421.875" y="34.581">Dominio 1: Organizaci&#243;n y Seguridad</text></g><!--class tenants--><g id="elem_tenants"><rect codeLine="15" fill="#F1F1F1" height="166.3956" id="tenants" rx="3.9063" ry="3.9063" style="stroke:#181818;stroke-width:0.78125;" width="293.75" x="35.9375" y="453.125"/><text fill="#000000" font-family="Arial" font-size="21.875" lengthAdjust="spacing" textLength="73.4375" x="146.0938" y="481.456">tenants</text><line style="stroke:#181818;stroke-width:0.78125;" x1="37.5" x2="328.125" y1="493.9041" y2="493.9041"/><ellipse cx="53.125" cy="515.0749" fill="#000000" rx="4.6875" ry="4.6875" style="stroke:#000000;stroke-width:1.5625;"/><text fill="#000000" font-family="Arial" font-size="21.875" lengthAdjust="spacing" textLength="143.75" x="67.1875" y="520.6726">id : UUID &#171;PK&#187;</text><line style="stroke:#181818;stroke-width:1.5625;" x1="37.5" x2="328.125" y1="531.5582" y2="531.5582"/><text fill="#000000" font-family="Arial" font-size="21.875" lengthAdjust="spacing" textLength="229.6875" x="45.3125" y="558.3267">name : VARCHAR(150)</text><text fill="#000000" font-family="Arial" font-size="21.875" lengthAdjust="spacing" textLength="235.9375" x="45.3125" y="583.4808">global_settings : JSONB</text><text fill="#000000" font-family="Arial" font-size="21.875" lengthAdjust="spacing" textLength="275" x="45.3125" y="608.6349">created_at : TIMESTAMPTZ</text></g><!--class branches--><g id="elem_branches"><rect codeLine="23" fill="#F1F1F1" height="216.7038" id="branches" rx="3.9063" ry="3.9063" style="stroke:#181818;stroke-width:0.78125;" width="273.4375" x="460.9375" y="592.9688"/><text fill="#000000" font-family="Arial" font-size="21.875" lengthAdjust="spacing" textLength="92.1875" x="551.5625" y="621.2997">branches</text><line style="stroke:#181818;stroke-width:0.78125;" x1="462.5" x2="732.8125" y1="633.7479" y2="633.7479"/><ellipse cx="478.125" cy="654.9187" fill="#000000" rx="4.6875" ry="4.6875" style="stroke:#000000;stroke-width:1.5625;"/><text fill="#000000" font-family="Arial" font-size="21.875" lengthAdjust="spacing" textLength="143.75" x="492.1875" y="660.5164">id : UUID &#171;PK&#187;</text><line style="stroke:#181818;stroke-width:1.5625;" x1="462.5" x2="732.8125" y1="671.402" y2="671.402"/><text fill="#000000" font-family="Arial" font-size="21.875" lengthAdjust="spacing" textLength="218.75" x="470.3125" y="698.1705">tenant_id : UUID &#171;FK&#187;</text><text fill="#000000" font-family="Arial" font-size="21.875" lengthAdjust="spacing" textLength="229.6875" x="470.3125" y="723.3246">name : VARCHAR(150)</text><text fill="#000000" font-family="Arial" font-size="21.875" lengthAdjust="spacing" textLength="250" x="470.3125" y="748.4787">timezone : VARCHAR(50)</text><text fill="#000000" font-family="Arial" font-size="21.875" lengthAdjust="spacing" textLength="254.6875" x="470.3125" y="773.6328">address : VARCHAR(255)</text><text fill="#000000" font-family="Arial" font-size="21.875" lengthAdjust="spacing" textLength="207.8125" x="470.3125" y="798.7869">is_active : BOOLEAN</text></g><!--class branch_operating_hours--><g id="elem_branch_operating_hours"><rect codeLine="33" fill="#F1F1F1" height="241.8579" id="branch_operating_hours" rx="3.9063" ry="3.9063" style="stroke:#181818;stroke-width:0.78125;" width="270.3125" x="901.5625" y="625.7813"/><text fill="#000000" font-family="Arial" font-size="21.875" lengthAdjust="spacing" textLength="243.75" x="914.8438" y="654.1122">branch_operating_hours</text><line style="stroke:#181818;stroke-width:0.78125;" x1="903.125" x2="1170.3125" y1="666.5604" y2="666.5604"/><ellipse cx="918.75" cy="687.7312" fill="#000000" rx="4.6875" ry="4.6875" style="stroke:#000000;stroke-width:1.5625;"/><text fill="#000000" font-family="Arial" font-size="21.875" lengthAdjust="spacing" textLength="143.75" x="932.8125" y="693.3289">id : UUID &#171;PK&#187;</text><line style="stroke:#181818;stroke-width:1.5625;" x1="903.125" x2="1170.3125" y1="704.2145" y2="704.2145"/><text fill="#000000" font-family="Arial" font-size="21.875" lengthAdjust="spacing" textLength="218.75" x="910.9375" y="730.983">tenant_id : UUID &#171;FK&#187;</text><text fill="#000000" font-family="Arial" font-size="21.875" lengthAdjust="spacing" textLength="225" x="910.9375" y="756.1371">branch_id : UUID &#171;FK&#187;</text><text fill="#000000" font-family="Arial" font-size="21.875" lengthAdjust="spacing" textLength="251.5625" x="910.9375" y="781.2912">day_of_week : SMALLINT</text><text fill="#000000" font-family="Arial" font-size="21.875" lengthAdjust="spacing" textLength="171.875" x="910.9375" y="806.4453">open_time : TIME</text><text fill="#000000" font-family="Arial" font-size="21.875" lengthAdjust="spacing" textLength="173.4375" x="910.9375" y="831.5994">close_time : TIME</text><text fill="#000000" font-family="Arial" font-size="21.875" lengthAdjust="spacing" textLength="214.0625" x="910.9375" y="856.7535">is_closed : BOOLEAN</text></g><!--class branch_exceptions--><g id="elem_branch_exceptions"><rect codeLine="44" fill="#F1F1F1" height="267.012" id="branch_exceptions" rx="3.9063" ry="3.9063" style="stroke:#181818;stroke-width:0.78125;" width="342.1875" x="865.625" y="303.9063"/><text fill="#000000" font-family="Arial" font-size="21.875" lengthAdjust="spacing" textLength="185.9375" x="943.75" y="332.2372">branch_exceptions</text><line style="stroke:#181818;stroke-width:0.78125;" x1="867.1875" x2="1206.25" y1="344.6854" y2="344.6854"/><ellipse cx="882.8125" cy="365.8562" fill="#000000" rx="4.6875" ry="4.6875" style="stroke:#000000;stroke-width:1.5625;"/><text fill="#000000" font-family="Arial" font-size="21.875" lengthAdjust="spacing" textLength="143.75" x="896.875" y="371.4539">id : UUID &#171;PK&#187;</text><line style="stroke:#181818;stroke-width:1.5625;" x1="867.1875" x2="1206.25" y1="382.3395" y2="382.3395"/><text fill="#000000" font-family="Arial" font-size="21.875" lengthAdjust="spacing" textLength="218.75" x="875" y="409.108">tenant_id : UUID &#171;FK&#187;</text><text fill="#000000" font-family="Arial" font-size="21.875" lengthAdjust="spacing" textLength="225" x="875" y="434.2621">branch_id : UUID &#171;FK&#187;</text><text fill="#000000" font-family="Arial" font-size="21.875" lengthAdjust="spacing" textLength="309.375" x="875" y="459.4162">start_datetime : TIMESTAMPTZ</text><text fill="#000000" font-family="Arial" font-size="21.875" lengthAdjust="spacing" textLength="303.125" x="875" y="484.5703">end_datetime : TIMESTAMPTZ</text><text fill="#000000" font-family="Arial" font-size="21.875" lengthAdjust="spacing" textLength="243.75" x="875" y="509.7244">reason : VARCHAR(255)</text><text fill="#000000" font-family="Arial" font-size="21.875" lengthAdjust="spacing" textLength="226.5625" x="875" y="534.8785">is_full_day : BOOLEAN</text><text fill="#000000" font-family="Arial" font-size="21.875" lengthAdjust="spacing" textLength="323.4375" x="875" y="560.0327">created_by_user_id : UUID &#171;FK&#187;</text></g><!--class users--><g id="elem_users"><rect codeLine="56" fill="#F1F1F1" height="191.5497" id="users" rx="3.9063" ry="3.9063" style="stroke:#181818;stroke-width:0.78125;" width="348.4375" x="423.4375" y="286.7188"/><text fill="#000000" font-family="Arial" font-size="21.875" lengthAdjust="spacing" textLength="54.6875" x="570.3125" y="315.0497">users</text><line style="stroke:#181818;stroke-width:0.78125;" x1="425" x2="770.3125" y1="327.4979" y2="327.4979"/><ellipse cx="440.625" cy="348.6687" fill="#000000" rx="4.6875" ry="4.6875" style="stroke:#000000;stroke-width:1.5625;"/><text fill="#000000" font-family="Arial" font-size="21.875" lengthAdjust="spacing" textLength="143.75" x="454.6875" y="354.2664">id : UUID &#171;PK&#187;</text><line style="stroke:#181818;stroke-width:1.5625;" x1="425" x2="770.3125" y1="365.152" y2="365.152"/><text fill="#000000" font-family="Arial" font-size="21.875" lengthAdjust="spacing" textLength="218.75" x="432.8125" y="391.9205">tenant_id : UUID &#171;FK&#187;</text><text fill="#000000" font-family="Arial" font-size="21.875" lengthAdjust="spacing" textLength="226.5625" x="432.8125" y="417.0746">email : VARCHAR(255)</text><text fill="#000000" font-family="Arial" font-size="21.875" lengthAdjust="spacing" textLength="329.6875" x="432.8125" y="442.2287">password_hash : VARCHAR(255)</text><text fill="#000000" font-family="Arial" font-size="21.875" lengthAdjust="spacing" textLength="270.3125" x="432.8125" y="467.3828">full_name : VARCHAR(150)</text></g><!--class roles--><g id="elem_roles"><rect codeLine="65" fill="#F1F1F1" height="166.3956" id="roles" rx="3.9063" ry="3.9063" style="stroke:#181818;stroke-width:0.78125;" width="237.5" x="478.9063" y="65.625"/><text fill="#000000" font-family="Arial" font-size="21.875" lengthAdjust="spacing" textLength="48.4375" x="573.4375" y="93.956">roles</text><line style="stroke:#181818;stroke-width:0.78125;" x1="480.4688" x2="714.8438" y1="106.4041" y2="106.4041"/><ellipse cx="496.0938" cy="127.5749" fill="#000000" rx="4.6875" ry="4.6875" style="stroke:#000000;stroke-width:1.5625;"/><text fill="#000000" font-family="Arial" font-size="21.875" lengthAdjust="spacing" textLength="143.75" x="510.1563" y="133.1726">id : UUID &#171;PK&#187;</text><line style="stroke:#181818;stroke-width:1.5625;" x1="480.4688" x2="714.8438" y1="144.0582" y2="144.0582"/><text fill="#000000" font-family="Arial" font-size="21.875" lengthAdjust="spacing" textLength="218.75" x="488.2813" y="170.8267">tenant_id : UUID &#171;FK&#187;</text><text fill="#000000" font-family="Arial" font-size="21.875" lengthAdjust="spacing" textLength="217.1875" x="488.2813" y="195.9808">name : VARCHAR(50)</text><text fill="#000000" font-family="Arial" font-size="21.875" lengthAdjust="spacing" textLength="204.6875" x="488.2813" y="221.1349">permissions : JSONB</text></g><!--class user_roles--><g id="elem_user_roles"><rect codeLine="73" fill="#F1F1F1" height="141.2415" id="user_roles" rx="3.9063" ry="3.9063" style="stroke:#181818;stroke-width:0.78125;" width="306.25" x="883.5938" y="107.8125"/><text fill="#000000" font-family="Arial" font-size="21.875" lengthAdjust="spacing" textLength="104.6875" x="984.375" y="136.1435">user_roles</text><line style="stroke:#181818;stroke-width:0.78125;" x1="885.1563" x2="1188.2813" y1="148.5916" y2="148.5916"/><ellipse cx="900.7813" cy="169.7624" fill="#000000" rx="4.6875" ry="4.6875" style="stroke:#000000;stroke-width:1.5625;"/><text fill="#000000" font-family="Arial" font-size="21.875" lengthAdjust="spacing" textLength="240.625" x="914.8438" y="175.3601">user_id : UUID &#171;PK, FK&#187;</text><ellipse cx="900.7813" cy="194.9165" fill="#000000" rx="4.6875" ry="4.6875" style="stroke:#000000;stroke-width:1.5625;"/><text fill="#000000" font-family="Arial" font-size="21.875" lengthAdjust="spacing" textLength="234.375" x="914.8438" y="200.5142">role_id : UUID &#171;PK, FK&#187;</text><ellipse cx="900.7813" cy="220.0706" fill="#000000" rx="4.6875" ry="4.6875" style="stroke:#000000;stroke-width:1.5625;"/><text fill="#000000" font-family="Arial" font-size="21.875" lengthAdjust="spacing" textLength="265.625" x="914.8438" y="225.6683">branch_id : UUID &#171;PK, FK&#187;</text><line style="stroke:#181818;stroke-width:0.78125;" x1="885.1563" x2="1188.2813" y1="236.554" y2="236.554"/></g><!--link tenants to branches--><g id="link_tenants_branches"><path codeLine="80" d="M342.7344,605.8594 C385.125,605.8594 390.5469,605.8594 432.2813,605.8594 " fill="none" id="tenants-branches" style="stroke:#181818;stroke-width:1.5625;"/><line style="stroke:#181818;stroke-width:1.5625;" x1="336.4844" x2="336.4844" y1="612.1094" y2="599.6094"/><line style="stroke:#181818;stroke-width:1.5625;" x1="341.1719" x2="341.1719" y1="612.1094" y2="599.6094"/><line style="stroke:#181818;stroke-width:1.5625;" x1="342.7344" x2="330.2344" y1="605.8594" y2="605.8594"/><line style="stroke:#181818;stroke-width:1.5625;" x1="447.9063" x2="460.4063" y1="605.8594" y2="596.4844"/><line style="stroke:#181818;stroke-width:1.5625;" x1="447.9063" x2="460.4063" y1="605.8594" y2="615.2344"/><line style="stroke:#181818;stroke-width:1.5625;" x1="447.9063" x2="460.4063" y1="605.8594" y2="605.8594"/><ellipse cx="438.5313" cy="605.8594" fill="none" rx="6.25" ry="6.25" style="stroke:#181818;stroke-width:1.5625;"/><text fill="#000000" font-family="Arial" font-size="20.3125" lengthAdjust="spacing" textLength="82.8125" x="310.9531" y="626.4748">tenant_id</text></g><!--link tenants to branch_operating_hours--><g id="link_tenants_branch_operating_hours"><path codeLine="81" d="M342.2344,582.0313 C586.6094,582.0313 1037.5,582.0313 1037.5,582.0313 C1037.5,582.0313 1037.5,572.7188 1037.5,597.6563 " fill="none" id="tenants-branch_operating_hours" style="stroke:#181818;stroke-width:1.5625;"/><line style="stroke:#181818;stroke-width:1.5625;" x1="335.9844" x2="335.9844" y1="588.2813" y2="575.7813"/><line style="stroke:#181818;stroke-width:1.5625;" x1="340.6719" x2="340.6719" y1="588.2813" y2="575.7813"/><line style="stroke:#181818;stroke-width:1.5625;" x1="342.2344" x2="329.7344" y1="582.0313" y2="582.0313"/><line style="stroke:#181818;stroke-width:1.5625;" x1="1037.5" x2="1046.875" y1="613.2813" y2="625.7813"/><line style="stroke:#181818;stroke-width:1.5625;" x1="1037.5" x2="1028.125" y1="613.2813" y2="625.7813"/><line style="stroke:#181818;stroke-width:1.5625;" x1="1037.5" x2="1037.5" y1="613.2813" y2="625.7813"/><ellipse cx="1037.5" cy="603.9063" fill="none" rx="6.25" ry="6.25" style="stroke:#181818;stroke-width:1.5625;"/><text fill="#000000" font-family="Arial" font-size="20.3125" lengthAdjust="spacing" textLength="82.8125" x="621.1094" y="577.6466">tenant_id</text></g><!--link tenants to branch_exceptions--><g id="link_tenants_branch_exceptions"><path codeLine="82" d="M342.5938,525 C491.2031,525 679.9219,525 836.75,525 " fill="none" id="tenants-branch_exceptions" style="stroke:#181818;stroke-width:1.5625;"/><line style="stroke:#181818;stroke-width:1.5625;" x1="336.3438" x2="336.3438" y1="531.25" y2="518.75"/><line style="stroke:#181818;stroke-width:1.5625;" x1="341.0313" x2="341.0313" y1="531.25" y2="518.75"/><line style="stroke:#181818;stroke-width:1.5625;" x1="342.5938" x2="330.0938" y1="525" y2="525"/><line style="stroke:#181818;stroke-width:1.5625;" x1="852.375" x2="864.875" y1="525" y2="515.625"/><line style="stroke:#181818;stroke-width:1.5625;" x1="852.375" x2="864.875" y1="525" y2="534.375"/><line style="stroke:#181818;stroke-width:1.5625;" x1="852.375" x2="864.875" y1="525" y2="525"/><ellipse cx="843" cy="525" fill="none" rx="6.25" ry="6.25" style="stroke:#181818;stroke-width:1.5625;"/><text fill="#000000" font-family="Arial" font-size="20.3125" lengthAdjust="spacing" textLength="82.8125" x="513.1094" y="545.6154">tenant_id</text></g><!--link tenants to users--><g id="link_tenants_users"><path codeLine="83" d="M342.7344,466.0156 C372.7813,466.0156 364.0313,466.0156 394.9219,466.0156 " fill="none" id="tenants-users" style="stroke:#181818;stroke-width:1.5625;"/><line style="stroke:#181818;stroke-width:1.5625;" x1="336.4844" x2="336.4844" y1="472.2656" y2="459.7656"/><line style="stroke:#181818;stroke-width:1.5625;" x1="341.1719" x2="341.1719" y1="472.2656" y2="459.7656"/><line style="stroke:#181818;stroke-width:1.5625;" x1="342.7344" x2="330.2344" y1="466.0156" y2="466.0156"/><line style="stroke:#181818;stroke-width:1.5625;" x1="410.5469" x2="423.0469" y1="466.0156" y2="456.6406"/><line style="stroke:#181818;stroke-width:1.5625;" x1="410.5469" x2="423.0469" y1="466.0156" y2="475.3906"/><line style="stroke:#181818;stroke-width:1.5625;" x1="410.5469" x2="423.0469" y1="466.0156" y2="466.0156"/><ellipse cx="401.1719" cy="466.0156" fill="none" rx="6.25" ry="6.25" style="stroke:#181818;stroke-width:1.5625;"/><text fill="#000000" font-family="Arial" font-size="20.3125" lengthAdjust="spacing" textLength="82.8125" x="378.2031" y="486.631">tenant_id</text></g><!--link tenants to roles--><g id="link_tenants_roles"><path codeLine="84" d="M182.8125,440.3125 C182.8125,326.4531 182.8125,148.4375 182.8125,148.4375 C182.8125,148.4375 328.0625,148.4375 450.6563,148.4375 " fill="none" id="tenants-roles" style="stroke:#181818;stroke-width:1.5625;"/><line style="stroke:#181818;stroke-width:1.5625;" x1="189.0625" x2="176.5625" y1="446.5625" y2="446.5625"/><line style="stroke:#181818;stroke-width:1.5625;" x1="189.0625" x2="176.5625" y1="441.875" y2="441.875"/><line style="stroke:#181818;stroke-width:1.5625;" x1="182.8125" x2="182.8125" y1="440.3125" y2="452.8125"/><line style="stroke:#181818;stroke-width:1.5625;" x1="466.2813" x2="478.7813" y1="148.4375" y2="139.0625"/><line style="stroke:#181818;stroke-width:1.5625;" x1="466.2813" x2="478.7813" y1="148.4375" y2="157.8125"/><line style="stroke:#181818;stroke-width:1.5625;" x1="466.2813" x2="478.7813" y1="148.4375" y2="148.4375"/><ellipse cx="456.9063" cy="148.4375" fill="none" rx="6.25" ry="6.25" style="stroke:#181818;stroke-width:1.5625;"/><text fill="#000000" font-family="Arial" font-size="20.3125" lengthAdjust="spacing" textLength="82.8125" x="98.4375" y="173.256">tenant_id</text></g><!--link branches to branch_operating_hours--><g id="link_branches_branch_operating_hours"><path codeLine="85" d="M747.2656,717.9688 C800.3594,717.9688 820.3438,717.9688 873.2656,717.9688 " fill="none" id="branches-branch_operating_hours" style="stroke:#181818;stroke-width:1.5625;"/><line style="stroke:#181818;stroke-width:1.5625;" x1="741.0156" x2="741.0156" y1="724.2188" y2="711.7188"/><line style="stroke:#181818;stroke-width:1.5625;" x1="745.7031" x2="745.7031" y1="724.2188" y2="711.7188"/><line style="stroke:#181818;stroke-width:1.5625;" x1="747.2656" x2="734.7656" y1="717.9688" y2="717.9688"/><line style="stroke:#181818;stroke-width:1.5625;" x1="888.8906" x2="901.3906" y1="717.9688" y2="708.5938"/><line style="stroke:#181818;stroke-width:1.5625;" x1="888.8906" x2="901.3906" y1="717.9688" y2="727.3438"/><line style="stroke:#181818;stroke-width:1.5625;" x1="888.8906" x2="901.3906" y1="717.9688" y2="717.9688"/><ellipse cx="879.5156" cy="717.9688" fill="none" rx="6.25" ry="6.25" style="stroke:#181818;stroke-width:1.5625;"/><text fill="#000000" font-family="Arial" font-size="20.3125" lengthAdjust="spacing" textLength="87.5" x="729.0156" y="738.5841">branch_id</text></g><!--link branches to branch_exceptions--><g id="link_branches_branch_exceptions"><path codeLine="86" d="M747.2188,614.8438 C820.9375,614.8438 884.375,614.8438 884.375,614.8438 C884.375,614.8438 884.375,624.5469 884.375,599.5781 " fill="none" id="branches-branch_exceptions" style="stroke:#181818;stroke-width:1.5625;"/><line style="stroke:#181818;stroke-width:1.5625;" x1="740.9688" x2="740.9688" y1="621.0938" y2="608.5938"/><line style="stroke:#181818;stroke-width:1.5625;" x1="745.6563" x2="745.6563" y1="621.0938" y2="608.5938"/><line style="stroke:#181818;stroke-width:1.5625;" x1="747.2188" x2="734.7188" y1="614.8438" y2="614.8438"/><line style="stroke:#181818;stroke-width:1.5625;" x1="884.375" x2="875" y1="583.9531" y2="571.4531"/><line style="stroke:#181818;stroke-width:1.5625;" x1="884.375" x2="893.75" y1="583.9531" y2="571.4531"/><line style="stroke:#181818;stroke-width:1.5625;" x1="884.375" x2="884.375" y1="583.9531" y2="571.4531"/><ellipse cx="884.375" cy="593.3281" fill="none" rx="6.25" ry="6.25" style="stroke:#181818;stroke-width:1.5625;"/><text fill="#000000" font-family="Arial" font-size="20.3125" lengthAdjust="spacing" textLength="87.5" x="742.1719" y="635.4591">branch_id</text></g><!--link branches to user_roles--><g id="link_branches_user_roles"><path codeLine="87" d="M747.0313,603.9063 C792.2656,603.9063 818.75,603.9063 818.75,603.9063 C818.75,603.9063 818.75,242.7031 818.75,242.7031 C818.75,242.7031 819.0781,242.7031 855.4375,242.7031 " fill="none" id="branches-user_roles" style="stroke:#181818;stroke-width:1.5625;"/><line style="stroke:#181818;stroke-width:1.5625;" x1="740.7813" x2="740.7813" y1="610.1563" y2="597.6563"/><line style="stroke:#181818;stroke-width:1.5625;" x1="745.4688" x2="745.4688" y1="610.1563" y2="597.6563"/><line style="stroke:#181818;stroke-width:1.5625;" x1="747.0313" x2="734.5313" y1="603.9063" y2="603.9063"/><line style="stroke:#181818;stroke-width:1.5625;" x1="871.0625" x2="883.5625" y1="242.7031" y2="233.3281"/><line style="stroke:#181818;stroke-width:1.5625;" x1="871.0625" x2="883.5625" y1="242.7031" y2="252.0781"/><line style="stroke:#181818;stroke-width:1.5625;" x1="871.0625" x2="883.5625" y1="242.7031" y2="242.7031"/><ellipse cx="861.6875" cy="242.7031" fill="none" rx="6.25" ry="6.25" style="stroke:#181818;stroke-width:1.5625;"/><text fill="#000000" font-family="Arial" font-size="20.3125" lengthAdjust="spacing" textLength="87.5" x="729.6875" y="453.631">branch_id</text></g><!--link users to branch_exceptions--><g id="link_users_branch_exceptions"><path codeLine="88" d="M784.9531,391.4063 C815.5625,391.4063 806.75,391.4063 837.2656,391.4063 " fill="none" id="users-branch_exceptions" style="stroke:#181818;stroke-width:1.5625;"/><line style="stroke:#181818;stroke-width:1.5625;" x1="778.7031" x2="778.7031" y1="397.6563" y2="385.1563"/><line style="stroke:#181818;stroke-width:1.5625;" x1="783.3906" x2="783.3906" y1="397.6563" y2="385.1563"/><line style="stroke:#181818;stroke-width:1.5625;" x1="784.9531" x2="772.4531" y1="391.4063" y2="391.4063"/><line style="stroke:#181818;stroke-width:1.5625;" x1="852.8906" x2="865.3906" y1="391.4063" y2="382.0313"/><line style="stroke:#181818;stroke-width:1.5625;" x1="852.8906" x2="865.3906" y1="391.4063" y2="400.7813"/><line style="stroke:#181818;stroke-width:1.5625;" x1="852.8906" x2="865.3906" y1="391.4063" y2="391.4063"/><ellipse cx="843.5156" cy="391.4063" fill="none" rx="6.25" ry="6.25" style="stroke:#181818;stroke-width:1.5625;"/><text fill="#000000" font-family="Arial" font-size="20.3125" lengthAdjust="spacing" textLength="176.5625" x="640.7969" y="412.0216">created_by_user_id</text></g><!--link users to user_roles--><g id="link_users_user_roles"><path codeLine="89" d="M745.3125,273.8594 C745.3125,246.7344 745.3125,236.9844 745.3125,236.9844 C745.3125,236.9844 785,236.9844 855.2031,236.9844 " fill="none" id="users-user_roles" style="stroke:#181818;stroke-width:1.5625;"/><line style="stroke:#181818;stroke-width:1.5625;" x1="751.5625" x2="739.0625" y1="280.1094" y2="280.1094"/><line style="stroke:#181818;stroke-width:1.5625;" x1="751.5625" x2="739.0625" y1="275.4219" y2="275.4219"/><line style="stroke:#181818;stroke-width:1.5625;" x1="745.3125" x2="745.3125" y1="273.8594" y2="286.3594"/><line style="stroke:#181818;stroke-width:1.5625;" x1="870.8281" x2="883.3281" y1="236.9844" y2="227.6094"/><line style="stroke:#181818;stroke-width:1.5625;" x1="870.8281" x2="883.3281" y1="236.9844" y2="246.3594"/><line style="stroke:#181818;stroke-width:1.5625;" x1="870.8281" x2="883.3281" y1="236.9844" y2="236.9844"/><ellipse cx="861.4531" cy="236.9844" fill="none" rx="6.25" ry="6.25" style="stroke:#181818;stroke-width:1.5625;"/><text fill="#000000" font-family="Arial" font-size="20.3125" lengthAdjust="spacing" textLength="65.625" x="722.4531" y="257.5998">user_id</text></g><!--link roles to user_roles--><g id="link_roles_user_roles"><path codeLine="90" d="M728.9688,169.5313 C780.4063,169.5313 800.625,169.5313 855.3906,169.5313 " fill="none" id="roles-user_roles" style="stroke:#181818;stroke-width:1.5625;"/><line style="stroke:#181818;stroke-width:1.5625;" x1="722.7188" x2="722.7188" y1="175.7813" y2="163.2813"/><line style="stroke:#181818;stroke-width:1.5625;" x1="727.4063" x2="727.4063" y1="175.7813" y2="163.2813"/><line style="stroke:#181818;stroke-width:1.5625;" x1="728.9688" x2="716.4688" y1="169.5313" y2="169.5313"/><line style="stroke:#181818;stroke-width:1.5625;" x1="871.0156" x2="883.5156" y1="169.5313" y2="160.1563"/><line style="stroke:#181818;stroke-width:1.5625;" x1="871.0156" x2="883.5156" y1="169.5313" y2="178.9063"/><line style="stroke:#181818;stroke-width:1.5625;" x1="871.0156" x2="883.5156" y1="169.5313" y2="169.5313"/><ellipse cx="861.6406" cy="169.5313" fill="none" rx="6.25" ry="6.25" style="stroke:#181818;stroke-width:1.5625;"/><text fill="#000000" font-family="Arial" font-size="20.3125" lengthAdjust="spacing" textLength="59.375" x="739.0469" y="190.1466">role_id</text></g><!--SRC=[jLJ9Rjim4BthAmRkeMrG0qrJ0uKH150MesaJEuYT7deH9k9O8aAJ1aatLPQlwYVqnqejjgXQTWAaFOcQzqY-DmjVmx6QSSaLxFPXf1EK_0vZ_lkNX0p6b2mqPyW2GLCBLe7cIMg1SKsnvKe6AMS4CTUneC3SS3b7ZJCmAJ9rosK2KnJ6HmINPBCvWT8sLHx0vXnsU-_z24rn8Un0IJl46K6eEGeFdsDyWmcDRIO8SZqeauOAafRR3Eu3W4F7JRHQI7QaXDBmQl1f40wESaHfHhgAxkrztEtrWiSWg0w7pdEoqodkgAxhM98ehUa06gZM1Gwm0vn17wwkJezXV__Ywy514UvsYu_CJVRXMtXvz3cyVEEIyRQ89q9TeuWCMUioQXpbotWqF2omM1DQOX5Q5vwSdf-C9-7vnUIx0vs9MjErHXcdL8fQ_ZnBLUaWyYc39MMJOijdTAUaZoqXP4oJCHxoeTSh8MuYT4tr8zzsE1gTdOJ3TXkHcfF6F1bHgXRQD_Ktz6ABrR6j6CCiKjFebkZ6eUFpyEpiT3Wf82T3HdaQghAKnHBAq5hKsIu0zgHj-XdJF9-wXkCw-b_D6elQHinrcsUWxhPSBDi6kqOrIcwe-tGXXDkSDL9GT_Tr5YqCwJPXZJpbf38tnUh5-Q0PSj4cUOx6tBg78qhHf6s4mb3xU3GKQoMgeInM_teYbrFdXcB6ZIcQf7u-rd8NrNBgtvMcjH9SV7q7gvjt2WVRy9RkyXYF-QkxV2uV7hfTTLy_LFtQT3jdRUwVtk7DpHPosKXR26MEVC9AzLCALmdPjAKXSJFRgvLFAwLlEN5zl9fx6kSk6UL_6wEgV_07]--></g></svg>