<?xml version="1.0" encoding="us-ascii" standalone="no"?><svg xmlns="http://www.w3.org/2000/svg" xmlns:xlink="http://www.w3.org/1999/xlink" contentStyleType="text/css" height="1259.375px" preserveAspectRatio="none" style="width:739px;height:1259px;background:#FFFFFF;" version="1.1" viewBox="0 0 739 1259" width="739.0625px" zoomAndPan="magnify"><defs/><g><!--cluster Dominio 7: Gobierno, Integraci?n y Trazabilidad--><g id="cluster_Dominio 7: Gobierno, Integraci&#243;n y Trazabilidad"><rect fill="none" height="1239.0625" rx="3.9063" ry="3.9063" style="stroke:#000000;stroke-width:2.34375;" width="540.625" x="10.9375" y="10.9375"/><text fill="#000000" font-family="Arial" font-size="21.875" font-weight="bold" lengthAdjust="spacing" textLength="515.625" x="23.4375" y="34.581">Dominio 7: Gobierno, Integraci&#243;n y Trazabilidad</text></g><!--class auth_access_logs--><g id="elem_auth_access_logs"><rect codeLine="15" fill="#F1F1F1" height="292.1661" id="auth_access_logs" rx="3.9063" ry="3.9063" style="stroke:#181818;stroke-width:0.78125;" width="356.25" x="102.3438" y="660.1563"/><text fill="#000000" font-family="Arial" font-size="21.875" lengthAdjust="spacing" textLength="178.125" x="191.4063" y="688.4872">auth_access_logs</text><line style="stroke:#181818;stroke-width:0.78125;" x1="103.9063" x2="457.0313" y1="700.9354" y2="700.9354"/><ellipse cx="119.5313" cy="722.1062" fill="#000000" rx="4.6875" ry="4.6875" style="stroke:#000000;stroke-width:1.5625;"/><text fill="#000000" font-family="Arial" font-size="21.875" lengthAdjust="spacing" textLength="143.75" x="133.5938" y="727.7039">id : UUID &#171;PK&#187;</text><line style="stroke:#181818;stroke-width:1.5625;" x1="103.9063" x2="457.0313" y1="738.5895" y2="738.5895"/><text fill="#000000" font-family="Arial" font-size="21.875" lengthAdjust="spacing" textLength="218.75" x="111.7188" y="765.358">tenant_id : UUID &#171;FK&#187;</text><text fill="#000000" font-family="Arial" font-size="21.875" lengthAdjust="spacing" textLength="200" x="111.7188" y="790.5121">user_id : UUID &#171;FK&#187;</text><text fill="#000000" font-family="Arial" font-size="21.875" lengthAdjust="spacing" textLength="337.5" x="111.7188" y="815.6662">email_attempted : VARCHAR(255)</text><text fill="#000000" font-family="Arial" font-size="21.875" lengthAdjust="spacing" textLength="271.875" x="111.7188" y="840.8203">event_type : VARCHAR(50)</text><text fill="#000000" font-family="Arial" font-size="21.875" lengthAdjust="spacing" textLength="317.1875" x="111.7188" y="865.9744">failure_reason : VARCHAR(255)</text><text fill="#000000" font-family="Arial" font-size="21.875" lengthAdjust="spacing" textLength="337.5" x="111.7188" y="891.1285">ip_address : INET / VARCHAR(45)</text><text fill="#000000" font-family="Arial" font-size="21.875" lengthAdjust="spacing" textLength="185.9375" x="111.7188" y="916.2827">user_agent : TEXT</text><text fill="#000000" font-family="Arial" font-size="21.875" lengthAdjust="spacing" textLength="275" x="111.7188" y="941.4368">created_at : TIMESTAMPTZ</text></g><!--class audit_logs--><g id="elem_audit_logs"><rect codeLine="28" fill="#F1F1F1" height="267.012" id="audit_logs" rx="3.9063" ry="3.9063" style="stroke:#181818;stroke-width:0.78125;" width="301.5625" x="129.6875" y="338.2813"/><text fill="#000000" font-family="Arial" font-size="21.875" lengthAdjust="spacing" textLength="101.5625" x="229.6875" y="366.6122">audit_logs</text><line style="stroke:#181818;stroke-width:0.78125;" x1="131.25" x2="429.6875" y1="379.0604" y2="379.0604"/><ellipse cx="146.875" cy="400.2312" fill="#000000" rx="4.6875" ry="4.6875" style="stroke:#000000;stroke-width:1.5625;"/><text fill="#000000" font-family="Arial" font-size="21.875" lengthAdjust="spacing" textLength="143.75" x="160.9375" y="405.8289">id : UUID &#171;PK&#187;</text><line style="stroke:#181818;stroke-width:1.5625;" x1="131.25" x2="429.6875" y1="416.7145" y2="416.7145"/><text fill="#000000" font-family="Arial" font-size="21.875" lengthAdjust="spacing" textLength="218.75" x="139.0625" y="443.483">tenant_id : UUID &#171;FK&#187;</text><text fill="#000000" font-family="Arial" font-size="21.875" lengthAdjust="spacing" textLength="282.8125" x="139.0625" y="468.6371">entity_type : VARCHAR(100)</text><text fill="#000000" font-family="Arial" font-size="21.875" lengthAdjust="spacing" textLength="150" x="139.0625" y="493.7912">entity_id : UUID</text><text fill="#000000" font-family="Arial" font-size="21.875" lengthAdjust="spacing" textLength="221.875" x="139.0625" y="518.9453">action : VARCHAR(20)</text><text fill="#000000" font-family="Arial" font-size="21.875" lengthAdjust="spacing" textLength="171.875" x="139.0625" y="544.0994">changes : JSONB</text><text fill="#000000" font-family="Arial" font-size="21.875" lengthAdjust="spacing" textLength="264.0625" x="139.0625" y="569.2535">performed_by : UUID &#171;FK&#187;</text><text fill="#000000" font-family="Arial" font-size="21.875" lengthAdjust="spacing" textLength="268.75" x="139.0625" y="594.4077">timestamp : TIMESTAMPTZ</text></g><!--class webhooks_outbox--><g id="elem_webhooks_outbox"><rect codeLine="40" fill="#F1F1F1" height="216.7038" id="webhooks_outbox" rx="3.9063" ry="3.9063" style="stroke:#181818;stroke-width:0.78125;" width="303.125" x="128.9063" y="66.4063"/><text fill="#000000" font-family="Arial" font-size="21.875" lengthAdjust="spacing" textLength="176.5625" x="192.1875" y="94.7372">webhooks_outbox</text><line style="stroke:#181818;stroke-width:0.78125;" x1="130.4688" x2="430.4688" y1="107.1854" y2="107.1854"/><ellipse cx="146.0938" cy="128.3562" fill="#000000" rx="4.6875" ry="4.6875" style="stroke:#000000;stroke-width:1.5625;"/><text fill="#000000" font-family="Arial" font-size="21.875" lengthAdjust="spacing" textLength="143.75" x="160.1563" y="133.9539">id : UUID &#171;PK&#187;</text><line style="stroke:#181818;stroke-width:1.5625;" x1="130.4688" x2="430.4688" y1="144.8395" y2="144.8395"/><text fill="#000000" font-family="Arial" font-size="21.875" lengthAdjust="spacing" textLength="218.75" x="138.2813" y="171.608">tenant_id : UUID &#171;FK&#187;</text><text fill="#000000" font-family="Arial" font-size="21.875" lengthAdjust="spacing" textLength="284.375" x="138.2813" y="196.7621">event_type : VARCHAR(100)</text><text fill="#000000" font-family="Arial" font-size="21.875" lengthAdjust="spacing" textLength="165.625" x="138.2813" y="221.9162">payload : JSONB</text><text fill="#000000" font-family="Arial" font-size="21.875" lengthAdjust="spacing" textLength="221.875" x="138.2813" y="247.0703">status : VARCHAR(20)</text><text fill="#000000" font-family="Arial" font-size="21.875" lengthAdjust="spacing" textLength="275" x="138.2813" y="272.2244">created_at : TIMESTAMPTZ</text></g><!--class schedule_overrides_history--><g id="elem_schedule_overrides_history"><rect codeLine="50" fill="#F1F1F1" height="216.7038" id="schedule_overrides_history" rx="3.9063" ry="3.9063" style="stroke:#181818;stroke-width:0.78125;" width="382.8125" x="89.0625" y="1007.0313"/><text fill="#000000" font-family="Arial" font-size="21.875" lengthAdjust="spacing" textLength="271.875" x="144.5313" y="1035.3622">schedule_overrides_history</text><line style="stroke:#181818;stroke-width:0.78125;" x1="90.625" x2="470.3125" y1="1047.8104" y2="1047.8104"/><ellipse cx="106.25" cy="1068.9812" fill="#000000" rx="4.6875" ry="4.6875" style="stroke:#000000;stroke-width:1.5625;"/><text fill="#000000" font-family="Arial" font-size="21.875" lengthAdjust="spacing" textLength="143.75" x="120.3125" y="1074.5789">id : UUID &#171;PK&#187;</text><line style="stroke:#181818;stroke-width:1.5625;" x1="90.625" x2="470.3125" y1="1085.4645" y2="1085.4645"/><text fill="#000000" font-family="Arial" font-size="21.875" lengthAdjust="spacing" textLength="243.75" x="98.4375" y="1112.233">resource_id : UUID &#171;FK&#187;</text><text fill="#000000" font-family="Arial" font-size="21.875" lengthAdjust="spacing" textLength="334.375" x="98.4375" y="1137.3871">changed_by_user_id : UUID &#171;FK&#187;</text><text fill="#000000" font-family="Arial" font-size="21.875" lengthAdjust="spacing" textLength="329.6875" x="98.4375" y="1162.5412">change_reason : VARCHAR(255)</text><text fill="#000000" font-family="Arial" font-size="21.875" lengthAdjust="spacing" textLength="364.0625" x="98.4375" y="1187.6953">previous_schedule_payload : JSONB</text><text fill="#000000" font-family="Arial" font-size="21.875" lengthAdjust="spacing" textLength="275" x="98.4375" y="1212.8494">created_at : TIMESTAMPTZ</text></g><!--class tenants--><g id="elem_tenants"><rect fill="#F1F1F1" height="65.7791" id="tenants" rx="3.9063" ry="3.9063" style="stroke:#181818;stroke-width:0.78125;" width="82.8125" x="632.8125" y="439.0625"/><text fill="#000000" font-family="Arial" font-size="21.875" lengthAdjust="spacing" textLength="73.4375" x="637.5" y="467.3935">tenants</text><line style="stroke:#181818;stroke-width:0.78125;" x1="634.375" x2="714.0625" y1="479.8416" y2="479.8416"/><line style="stroke:#181818;stroke-width:0.78125;" x1="634.375" x2="714.0625" y1="492.3416" y2="492.3416"/></g><!--class users--><g id="elem_users"><rect fill="#F1F1F1" height="65.7791" id="users" rx="3.9063" ry="3.9063" style="stroke:#181818;stroke-width:0.78125;" width="64.0625" x="642.1875" y="773.4375"/><text fill="#000000" font-family="Arial" font-size="21.875" lengthAdjust="spacing" textLength="54.6875" x="646.875" y="801.7685">users</text><line style="stroke:#181818;stroke-width:0.78125;" x1="643.75" x2="704.6875" y1="814.2166" y2="814.2166"/><line style="stroke:#181818;stroke-width:0.78125;" x1="643.75" x2="704.6875" y1="826.7166" y2="826.7166"/></g><!--class resources--><g id="elem_resources"><rect fill="#F1F1F1" height="65.7791" id="resources" rx="3.9063" ry="3.9063" style="stroke:#181818;stroke-width:0.78125;" width="107.8125" x="620.3125" y="1082.8125"/><text fill="#000000" font-family="Arial" font-size="21.875" lengthAdjust="spacing" textLength="98.4375" x="625" y="1111.1435">resources</text><line style="stroke:#181818;stroke-width:0.78125;" x1="621.875" x2="726.5625" y1="1123.5916" y2="1123.5916"/><line style="stroke:#181818;stroke-width:0.78125;" x1="621.875" x2="726.5625" y1="1136.0916" y2="1136.0916"/></g><!--link auth_access_logs to tenants--><g id="link_auth_access_logs_tenants"><path codeLine="61" d="M445.3125,632.0156 C445.3125,546.3125 445.3125,482.8125 445.3125,482.8125 C445.3125,482.8125 554.2969,482.8125 620.2656,482.8125 " fill="none" id="auth_access_logs-tenants" style="stroke:#181818;stroke-width:1.5625;"/><line style="stroke:#181818;stroke-width:1.5625;" x1="445.3125" x2="454.6875" y1="647.6406" y2="660.1406"/><line style="stroke:#181818;stroke-width:1.5625;" x1="445.3125" x2="435.9375" y1="647.6406" y2="660.1406"/><line style="stroke:#181818;stroke-width:1.5625;" x1="445.3125" x2="445.3125" y1="647.6406" y2="660.1406"/><ellipse cx="445.3125" cy="638.2656" fill="none" rx="6.25" ry="6.25" style="stroke:#181818;stroke-width:1.5625;"/><line style="stroke:#181818;stroke-width:1.5625;" x1="626.5156" x2="626.5156" y1="476.5625" y2="489.0625"/><line style="stroke:#181818;stroke-width:1.5625;" x1="621.8281" x2="621.8281" y1="476.5625" y2="489.0625"/><line style="stroke:#181818;stroke-width:1.5625;" x1="620.2656" x2="632.7656" y1="482.8125" y2="482.8125"/><text fill="#000000" font-family="Arial" font-size="20.3125" lengthAdjust="spacing" textLength="82.8125" x="451.9375" y="503.4279">tenant_id</text></g><!--link auth_access_logs to users--><g id="link_auth_access_logs_users"><path codeLine="62" d="M487.0313,795.3125 C556.625,795.3125 588.6875,795.3125 629.2813,795.3125 " fill="none" id="auth_access_logs-users" style="stroke:#181818;stroke-width:1.5625;"/><line style="stroke:#181818;stroke-width:1.5625;" x1="471.4063" x2="458.9063" y1="795.3125" y2="804.6875"/><line style="stroke:#181818;stroke-width:1.5625;" x1="471.4063" x2="458.9063" y1="795.3125" y2="785.9375"/><line style="stroke:#181818;stroke-width:1.5625;" x1="471.4063" x2="458.9063" y1="795.3125" y2="795.3125"/><ellipse cx="480.7813" cy="795.3125" fill="none" rx="6.25" ry="6.25" style="stroke:#181818;stroke-width:1.5625;"/><line style="stroke:#181818;stroke-width:1.5625;" x1="635.5313" x2="635.5313" y1="789.0625" y2="801.5625"/><line style="stroke:#181818;stroke-width:1.5625;" x1="630.8438" x2="630.8438" y1="789.0625" y2="801.5625"/><line style="stroke:#181818;stroke-width:1.5625;" x1="629.2813" x2="641.7813" y1="795.3125" y2="795.3125"/><text fill="#000000" font-family="Arial" font-size="20.3125" lengthAdjust="spacing" textLength="65.625" x="483.1563" y="815.9279">user_id</text></g><!--link audit_logs to tenants--><g id="link_audit_logs_tenants"><path codeLine="63" d="M459.7031,460.9375 C531.9219,460.9375 572.2188,460.9375 619.9688,460.9375 " fill="none" id="audit_logs-tenants" style="stroke:#181818;stroke-width:1.5625;"/><line style="stroke:#181818;stroke-width:1.5625;" x1="444.0781" x2="431.5781" y1="460.9375" y2="470.3125"/><line style="stroke:#181818;stroke-width:1.5625;" x1="444.0781" x2="431.5781" y1="460.9375" y2="451.5625"/><line style="stroke:#181818;stroke-width:1.5625;" x1="444.0781" x2="431.5781" y1="460.9375" y2="460.9375"/><ellipse cx="453.4531" cy="460.9375" fill="none" rx="6.25" ry="6.25" style="stroke:#181818;stroke-width:1.5625;"/><line style="stroke:#181818;stroke-width:1.5625;" x1="626.2188" x2="626.2188" y1="454.6875" y2="467.1875"/><line style="stroke:#181818;stroke-width:1.5625;" x1="621.5313" x2="621.5313" y1="454.6875" y2="467.1875"/><line style="stroke:#181818;stroke-width:1.5625;" x1="619.9688" x2="632.4688" y1="460.9375" y2="460.9375"/><text fill="#000000" font-family="Arial" font-size="20.3125" lengthAdjust="spacing" textLength="82.8125" x="447.6406" y="456.5529">tenant_id</text></g><!--link audit_logs to users--><g id="link_audit_logs_users"><path codeLine="64" d="M459.4375,555.0781 C570.8125,555.0781 675,555.0781 675,555.0781 C675,555.0781 675,692.8281 675,760.9063 " fill="none" id="audit_logs-users" style="stroke:#181818;stroke-width:1.5625;"/><line style="stroke:#181818;stroke-width:1.5625;" x1="443.8125" x2="431.3125" y1="555.0781" y2="564.4531"/><line style="stroke:#181818;stroke-width:1.5625;" x1="443.8125" x2="431.3125" y1="555.0781" y2="545.7031"/><line style="stroke:#181818;stroke-width:1.5625;" x1="443.8125" x2="431.3125" y1="555.0781" y2="555.0781"/><ellipse cx="453.1875" cy="555.0781" fill="none" rx="6.25" ry="6.25" style="stroke:#181818;stroke-width:1.5625;"/><line style="stroke:#181818;stroke-width:1.5625;" x1="681.25" x2="668.75" y1="767.1563" y2="767.1563"/><line style="stroke:#181818;stroke-width:1.5625;" x1="681.25" x2="668.75" y1="762.4688" y2="762.4688"/><line style="stroke:#181818;stroke-width:1.5625;" x1="675" x2="675" y1="760.9063" y2="773.4063"/><text fill="#000000" font-family="Arial" font-size="20.3125" lengthAdjust="spacing" textLength="121.875" x="538.8906" y="575.6935">performed_by</text></g><!--link webhooks_outbox to tenants--><g id="link_webhooks_outbox_tenants"><path codeLine="65" d="M460.5625,175 C571.7031,175 675,175 675,175 C675,175 675,349.1719 675,426.4688 " fill="none" id="webhooks_outbox-tenants" style="stroke:#181818;stroke-width:1.5625;"/><line style="stroke:#181818;stroke-width:1.5625;" x1="444.9375" x2="432.4375" y1="175" y2="184.375"/><line style="stroke:#181818;stroke-width:1.5625;" x1="444.9375" x2="432.4375" y1="175" y2="165.625"/><line style="stroke:#181818;stroke-width:1.5625;" x1="444.9375" x2="432.4375" y1="175" y2="175"/><ellipse cx="454.3125" cy="175" fill="none" rx="6.25" ry="6.25" style="stroke:#181818;stroke-width:1.5625;"/><line style="stroke:#181818;stroke-width:1.5625;" x1="681.25" x2="668.75" y1="432.7188" y2="432.7188"/><line style="stroke:#181818;stroke-width:1.5625;" x1="681.25" x2="668.75" y1="428.0313" y2="428.0313"/><line style="stroke:#181818;stroke-width:1.5625;" x1="675" x2="675" y1="426.4688" y2="438.9688"/><text fill="#000000" font-family="Arial" font-size="20.3125" lengthAdjust="spacing" textLength="82.8125" x="590.625" y="206.3185">tenant_id</text></g><!--link schedule_overrides_history to resources--><g id="link_schedule_overrides_history_resources"><path codeLine="66" d="M500.2813,1115.625 C554.6563,1115.625 568.9219,1115.625 607.75,1115.625 " fill="none" id="schedule_overrides_history-resources" style="stroke:#181818;stroke-width:1.5625;"/><line style="stroke:#181818;stroke-width:1.5625;" x1="484.6563" x2="472.1563" y1="1115.625" y2="1125"/><line style="stroke:#181818;stroke-width:1.5625;" x1="484.6563" x2="472.1563" y1="1115.625" y2="1106.25"/><line style="stroke:#181818;stroke-width:1.5625;" x1="484.6563" x2="472.1563" y1="1115.625" y2="1115.625"/><ellipse cx="494.0313" cy="1115.625" fill="none" rx="6.25" ry="6.25" style="stroke:#181818;stroke-width:1.5625;"/><line style="stroke:#181818;stroke-width:1.5625;" x1="614" x2="614" y1="1109.375" y2="1121.875"/><line style="stroke:#181818;stroke-width:1.5625;" x1="609.3125" x2="609.3125" y1="1109.375" y2="1121.875"/><line style="stroke:#181818;stroke-width:1.5625;" x1="607.75" x2="620.25" y1="1115.625" y2="1115.625"/><text fill="#000000" font-family="Arial" font-size="20.3125" lengthAdjust="spacing" textLength="104.6875" x="439.9531" y="1136.2404">resource_id</text></g><!--link schedule_overrides_history to users--><g id="link_schedule_overrides_history_users"><path codeLine="67" d="M465.625,978.4844 C465.625,893.2344 465.625,817.1875 465.625,817.1875 C465.625,817.1875 571.0781,817.1875 629.5781,817.1875 " fill="none" id="schedule_overrides_history-users" style="stroke:#181818;stroke-width:1.5625;"/><line style="stroke:#181818;stroke-width:1.5625;" x1="465.625" x2="475" y1="994.1094" y2="1006.6094"/><line style="stroke:#181818;stroke-width:1.5625;" x1="465.625" x2="456.25" y1="994.1094" y2="1006.6094"/><line style="stroke:#181818;stroke-width:1.5625;" x1="465.625" x2="465.625" y1="994.1094" y2="1006.6094"/><ellipse cx="465.625" cy="984.7344" fill="none" rx="6.25" ry="6.25" style="stroke:#181818;stroke-width:1.5625;"/><line style="stroke:#181818;stroke-width:1.5625;" x1="635.8281" x2="635.8281" y1="810.9375" y2="823.4375"/><line style="stroke:#181818;stroke-width:1.5625;" x1="631.1406" x2="631.1406" y1="810.9375" y2="823.4375"/><line style="stroke:#181818;stroke-width:1.5625;" x1="629.5781" x2="642.0781" y1="817.1875" y2="817.1875"/><text fill="#000000" font-family="Arial" font-size="20.3125" lengthAdjust="spacing" textLength="185.9375" x="467.1875" y="844.2873">changed_by_user_id</text></g><!--SRC=[fLJRRjD047ttLup20nSHqT16eAggbAO91DHIjIb2l5WJxyHUPRrZxQvR3ErNyGdy66l72MxgHaLziZpdpEwSSyP-3iUSIYqPtkt31vv9CffVmqGxYWr6yizl3GLC3Vx4cLHIe0WKpHqu1YFZn86GXY8dMGU950IHD96Ym2wapj1W2ZP1mTTInp17PPk8affSaH6mSGat0959wFLtcXMQOwxScBKxnPHWO2Ig1fvXjC2OBboX2CfvKCTtfY3jf2lWLm1mvBcnuLoB8Iisy6pyVZmO3qk4ZI1JLtTtzthzVd0R1FNXqFbVfphLVVNL7SnT4c8KaRMXujXs02ri5giEW5SW1Up3vUNa60uEpZuV7bRbRhTwEDAeNTYaZ5UKt99fHoX5gK9qZjBCKSduEZWVVXoSltZRxxzSKgxyi66LoJ-qlxC4vxuzDnGQGikwhLrc8GfXl1QFJav7KtYp9ktLd6e-xwPsdZCTVPjMrSWVwcVoqvNLoSdeOZeuEPj-zw0FeEcXaAxftkhroRujRzZKtjkfnTVmkhKgOhNtJITgTfJu_QFIXKyNNqwFgbf6PiuczI9dHSlzJgPa7QRPTWEkQPOmBsp8kPlnZyg5ZThJhMZRWhKJ6HQAKTpHvWTtkMqpuf6vsYWXaIiA-OgCyVyH6oRIEZP5fV1X-55Y_KPoRY9gbxiCgumbVFZZMPAsx7vcw4foRiFrh6r6RVN3EtBlTt3BtUxDJHrNwV0wk0UvfOYIMOi96X_9rjCsMQjpceiRRExQbXEtX5PthN8f-nePFQ9pDTlzx8A_]--></g></svg>