<?xml version="1.0" encoding="us-ascii" standalone="no"?><svg xmlns="http://www.w3.org/2000/svg" xmlns:xlink="http://www.w3.org/1999/xlink" contentStyleType="text/css" height="1201.5625px" preserveAspectRatio="none" style="width:992px;height:1201px;background:#FFFFFF;" version="1.1" viewBox="0 0 992 1201" width="992.1875px" zoomAndPan="magnify"><defs/><g><!--cluster Dominio 6: Comunicaci?n--><g id="cluster_Dominio 6: Comunicaci&#243;n"><rect fill="none" height="767.1875" rx="3.9063" ry="3.9063" style="stroke:#000000;stroke-width:2.34375;" width="807.8125" x="10.9375" y="101.5625"/><text fill="#000000" font-family="Arial" font-size="21.875" font-weight="bold" lengthAdjust="spacing" textLength="275" x="277.3438" y="125.206">Dominio 6: Comunicaci&#243;n</text></g><!--class notification_channels--><g id="elem_notification_channels"><rect codeLine="15" fill="#F1F1F1" height="191.5497" id="notification_channels" rx="3.9063" ry="3.9063" style="stroke:#181818;stroke-width:0.78125;" width="248.4375" x="74.2188" y="403.9063"/><text fill="#000000" font-family="Arial" font-size="21.875" lengthAdjust="spacing" textLength="207.8125" x="94.5313" y="432.2372">notification_channels</text><line style="stroke:#181818;stroke-width:0.78125;" x1="75.7813" x2="321.0938" y1="444.6854" y2="444.6854"/><ellipse cx="91.4063" cy="465.8562" fill="#000000" rx="4.6875" ry="4.6875" style="stroke:#000000;stroke-width:1.5625;"/><text fill="#000000" font-family="Arial" font-size="21.875" lengthAdjust="spacing" textLength="143.75" x="105.4688" y="471.4539">id : UUID &#171;PK&#187;</text><line style="stroke:#181818;stroke-width:1.5625;" x1="75.7813" x2="321.0938" y1="482.3395" y2="482.3395"/><text fill="#000000" font-family="Arial" font-size="21.875" lengthAdjust="spacing" textLength="218.75" x="83.5938" y="509.108">tenant_id : UUID &#171;FK&#187;</text><text fill="#000000" font-family="Arial" font-size="21.875" lengthAdjust="spacing" textLength="210.9375" x="83.5938" y="534.2621">code : VARCHAR(50)</text><text fill="#000000" font-family="Arial" font-size="21.875" lengthAdjust="spacing" textLength="229.6875" x="83.5938" y="559.4162">name : VARCHAR(100)</text><text fill="#000000" font-family="Arial" font-size="21.875" lengthAdjust="spacing" textLength="207.8125" x="83.5938" y="584.5703">is_active : BOOLEAN</text></g><!--class notification_templates--><g id="elem_notification_templates"><rect codeLine="24" fill="#F1F1F1" height="191.5497" id="notification_templates" rx="3.9063" ry="3.9063" style="stroke:#181818;stroke-width:0.78125;" width="325" x="35.9375" y="157.0313"/><text fill="#000000" font-family="Arial" font-size="21.875" lengthAdjust="spacing" textLength="214.0625" x="91.4063" y="185.3622">notification_templates</text><line style="stroke:#181818;stroke-width:0.78125;" x1="37.5" x2="359.375" y1="197.8104" y2="197.8104"/><ellipse cx="53.125" cy="218.9812" fill="#000000" rx="4.6875" ry="4.6875" style="stroke:#000000;stroke-width:1.5625;"/><text fill="#000000" font-family="Arial" font-size="21.875" lengthAdjust="spacing" textLength="143.75" x="67.1875" y="224.5789">id : UUID &#171;PK&#187;</text><line style="stroke:#181818;stroke-width:1.5625;" x1="37.5" x2="359.375" y1="235.4645" y2="235.4645"/><text fill="#000000" font-family="Arial" font-size="21.875" lengthAdjust="spacing" textLength="218.75" x="45.3125" y="262.233">tenant_id : UUID &#171;FK&#187;</text><text fill="#000000" font-family="Arial" font-size="21.875" lengthAdjust="spacing" textLength="306.25" x="45.3125" y="287.3871">trigger_event : VARCHAR(100)</text><text fill="#000000" font-family="Arial" font-size="21.875" lengthAdjust="spacing" textLength="296.875" x="45.3125" y="312.5412">recipient_role : VARCHAR(20)</text><text fill="#000000" font-family="Arial" font-size="21.875" lengthAdjust="spacing" textLength="257.8125" x="45.3125" y="337.6953">content_template : JSONB</text></g><!--class notification_topics--><g id="elem_notification_topics"><rect codeLine="33" fill="#F1F1F1" height="191.5497" id="notification_topics" rx="3.9063" ry="3.9063" style="stroke:#181818;stroke-width:0.78125;" width="273.4375" x="61.7188" y="650.7813"/><text fill="#000000" font-family="Arial" font-size="21.875" lengthAdjust="spacing" textLength="176.5625" x="110.1563" y="679.1122">notification_topics</text><line style="stroke:#181818;stroke-width:0.78125;" x1="63.2813" x2="333.5938" y1="691.5604" y2="691.5604"/><ellipse cx="78.9063" cy="712.7312" fill="#000000" rx="4.6875" ry="4.6875" style="stroke:#000000;stroke-width:1.5625;"/><text fill="#000000" font-family="Arial" font-size="21.875" lengthAdjust="spacing" textLength="143.75" x="92.9688" y="718.3289">id : UUID &#171;PK&#187;</text><line style="stroke:#181818;stroke-width:1.5625;" x1="63.2813" x2="333.5938" y1="729.2145" y2="729.2145"/><text fill="#000000" font-family="Arial" font-size="21.875" lengthAdjust="spacing" textLength="218.75" x="71.0938" y="755.983">tenant_id : UUID &#171;FK&#187;</text><text fill="#000000" font-family="Arial" font-size="21.875" lengthAdjust="spacing" textLength="223.4375" x="71.0938" y="781.1371">code : VARCHAR(100)</text><text fill="#000000" font-family="Arial" font-size="21.875" lengthAdjust="spacing" textLength="229.6875" x="71.0938" y="806.2912">name : VARCHAR(150)</text><text fill="#000000" font-family="Arial" font-size="21.875" lengthAdjust="spacing" textLength="254.6875" x="71.0938" y="831.4453">is_mandatory : BOOLEAN</text></g><!--class notification_events--><g id="elem_notification_events"><rect codeLine="42" fill="#F1F1F1" height="317.3203" id="notification_events" rx="3.9063" ry="3.9063" style="stroke:#181818;stroke-width:0.78125;" width="328.125" x="465.625" y="157.0313"/><text fill="#000000" font-family="Arial" font-size="21.875" lengthAdjust="spacing" textLength="184.375" x="537.5" y="185.3622">notification_events</text><line style="stroke:#181818;stroke-width:0.78125;" x1="467.1875" x2="792.1875" y1="197.8104" y2="197.8104"/><ellipse cx="482.8125" cy="218.9812" fill="#000000" rx="4.6875" ry="4.6875" style="stroke:#000000;stroke-width:1.5625;"/><text fill="#000000" font-family="Arial" font-size="21.875" lengthAdjust="spacing" textLength="143.75" x="496.875" y="224.5789">id : UUID &#171;PK&#187;</text><line style="stroke:#181818;stroke-width:1.5625;" x1="467.1875" x2="792.1875" y1="235.4645" y2="235.4645"/><text fill="#000000" font-family="Arial" font-size="21.875" lengthAdjust="spacing" textLength="218.75" x="475" y="262.233">tenant_id : UUID &#171;FK&#187;</text><text fill="#000000" font-family="Arial" font-size="21.875" lengthAdjust="spacing" textLength="234.375" x="475" y="287.3871">booking_id : UUID &#171;FK&#187;</text><text fill="#000000" font-family="Arial" font-size="21.875" lengthAdjust="spacing" textLength="240.625" x="475" y="312.5412">template_id : UUID &#171;FK&#187;</text><text fill="#000000" font-family="Arial" font-size="21.875" lengthAdjust="spacing" textLength="301.5625" x="475" y="337.6953">recipient_type : VARCHAR(20)</text><text fill="#000000" font-family="Arial" font-size="21.875" lengthAdjust="spacing" textLength="181.25" x="475" y="362.8494">recipient_id : UUID</text><text fill="#000000" font-family="Arial" font-size="21.875" lengthAdjust="spacing" textLength="307.8125" x="475" y="388.0035">contact_point : VARCHAR(255)</text><text fill="#000000" font-family="Arial" font-size="21.875" lengthAdjust="spacing" textLength="221.875" x="475" y="413.1577">status : VARCHAR(20)</text><text fill="#000000" font-family="Arial" font-size="21.875" lengthAdjust="spacing" textLength="309.375" x="475" y="438.3118">scheduled_for : TIMESTAMPTZ</text><text fill="#000000" font-family="Arial" font-size="21.875" lengthAdjust="spacing" textLength="242.1875" x="475" y="463.4659">sent_at : TIMESTAMPTZ</text></g><!--class tenants--><g id="elem_tenants"><rect fill="#F1F1F1" height="65.7791" id="tenants" rx="3.9063" ry="3.9063" style="stroke:#181818;stroke-width:0.78125;" width="82.8125" x="898.4375" y="767.1875"/><text fill="#000000" font-family="Arial" font-size="21.875" lengthAdjust="spacing" textLength="73.4375" x="903.125" y="795.5185">tenants</text><line style="stroke:#181818;stroke-width:0.78125;" x1="900" x2="979.6875" y1="807.9666" y2="807.9666"/><line style="stroke:#181818;stroke-width:0.78125;" x1="900" x2="979.6875" y1="820.4666" y2="820.4666"/></g><!--class customer_notification_preferences--><g id="elem_customer_notification_preferences"><rect fill="#F1F1F1" height="65.7791" id="customer_notification_preferences" rx="3.9063" ry="3.9063" style="stroke:#181818;stroke-width:0.78125;" width="350" x="454.6875" y="1125"/><text fill="#000000" font-family="Arial" font-size="21.875" lengthAdjust="spacing" textLength="340.625" x="459.375" y="1153.331">customer_notification_preferences</text><line style="stroke:#181818;stroke-width:0.78125;" x1="456.25" x2="803.125" y1="1165.7791" y2="1165.7791"/><line style="stroke:#181818;stroke-width:0.78125;" x1="456.25" x2="803.125" y1="1178.2791" y2="1178.2791"/></g><!--class service_reminder_rules--><g id="elem_service_reminder_rules"><rect fill="#F1F1F1" height="65.7791" id="service_reminder_rules" rx="3.9063" ry="3.9063" style="stroke:#181818;stroke-width:0.78125;" width="240.625" x="509.375" y="893.75"/><text fill="#000000" font-family="Arial" font-size="21.875" lengthAdjust="spacing" textLength="231.25" x="514.0625" y="922.081">service_reminder_rules</text><line style="stroke:#181818;stroke-width:0.78125;" x1="510.9375" x2="748.4375" y1="934.5291" y2="934.5291"/><line style="stroke:#181818;stroke-width:0.78125;" x1="510.9375" x2="748.4375" y1="947.0291" y2="947.0291"/></g><!--class bookings--><g id="elem_bookings"><rect fill="#F1F1F1" height="65.7791" id="bookings" rx="3.9063" ry="3.9063" style="stroke:#181818;stroke-width:0.78125;" width="98.4375" x="149.2188" y="10.9375"/><text fill="#000000" font-family="Arial" font-size="21.875" lengthAdjust="spacing" textLength="89.0625" x="153.9063" y="39.2685">bookings</text><line style="stroke:#181818;stroke-width:0.78125;" x1="150.7813" x2="246.0938" y1="51.7166" y2="51.7166"/><line style="stroke:#181818;stroke-width:0.78125;" x1="150.7813" x2="246.0938" y1="64.2166" y2="64.2166"/></g><!--link notification_channels to tenants--><g id="link_notification_channels_tenants"><path codeLine="57" d="M350.7813,514.8438 C562.0781,514.8438 940.625,514.8438 940.625,514.8438 C940.625,514.8438 940.625,679.0156 940.625,754.2344 " fill="none" id="notification_channels-tenants" style="stroke:#181818;stroke-width:1.5625;"/><line style="stroke:#181818;stroke-width:1.5625;" x1="335.1563" x2="322.6563" y1="514.8438" y2="524.2188"/><line style="stroke:#181818;stroke-width:1.5625;" x1="335.1563" x2="322.6563" y1="514.8438" y2="505.4688"/><line style="stroke:#181818;stroke-width:1.5625;" x1="335.1563" x2="322.6563" y1="514.8438" y2="514.8438"/><ellipse cx="344.5313" cy="514.8438" fill="none" rx="6.25" ry="6.25" style="stroke:#181818;stroke-width:1.5625;"/><line style="stroke:#181818;stroke-width:1.5625;" x1="946.875" x2="934.375" y1="760.4844" y2="760.4844"/><line style="stroke:#181818;stroke-width:1.5625;" x1="946.875" x2="934.375" y1="755.7969" y2="755.7969"/><line style="stroke:#181818;stroke-width:1.5625;" x1="940.625" x2="940.625" y1="754.2344" y2="766.7344"/><text fill="#000000" font-family="Arial" font-size="20.3125" lengthAdjust="spacing" textLength="82.8125" x="673.2188" y="535.4591">tenant_id</text></g><!--link notification_templates to tenants--><g id="link_notification_templates_tenants"><path codeLine="58" d="M353.125,377.8438 C353.125,533.2656 353.125,793.4375 353.125,793.4375 C353.125,793.4375 751.5781,793.4375 885.625,793.4375 " fill="none" id="notification_templates-tenants" style="stroke:#181818;stroke-width:1.5625;"/><line style="stroke:#181818;stroke-width:1.5625;" x1="353.125" x2="343.75" y1="362.2188" y2="349.7188"/><line style="stroke:#181818;stroke-width:1.5625;" x1="353.125" x2="362.5" y1="362.2188" y2="349.7188"/><line style="stroke:#181818;stroke-width:1.5625;" x1="353.125" x2="353.125" y1="362.2188" y2="349.7188"/><ellipse cx="353.125" cy="371.5938" fill="none" rx="6.25" ry="6.25" style="stroke:#181818;stroke-width:1.5625;"/><line style="stroke:#181818;stroke-width:1.5625;" x1="891.875" x2="891.875" y1="787.1875" y2="799.6875"/><line style="stroke:#181818;stroke-width:1.5625;" x1="887.1875" x2="887.1875" y1="787.1875" y2="799.6875"/><line style="stroke:#181818;stroke-width:1.5625;" x1="885.625" x2="898.125" y1="793.4375" y2="793.4375"/><text fill="#000000" font-family="Arial" font-size="20.3125" lengthAdjust="spacing" textLength="82.8125" x="405.3281" y="814.0529">tenant_id</text></g><!--link notification_topics to tenants--><g id="link_notification_topics_tenants"><path codeLine="59" d="M363.4063,806.5625 C534.9531,806.5625 778.8125,806.5625 885.3438,806.5625 " fill="none" id="notification_topics-tenants" style="stroke:#181818;stroke-width:1.5625;"/><line style="stroke:#181818;stroke-width:1.5625;" x1="347.7813" x2="335.2813" y1="806.5625" y2="815.9375"/><line style="stroke:#181818;stroke-width:1.5625;" x1="347.7813" x2="335.2813" y1="806.5625" y2="797.1875"/><line style="stroke:#181818;stroke-width:1.5625;" x1="347.7813" x2="335.2813" y1="806.5625" y2="806.5625"/><ellipse cx="357.1563" cy="806.5625" fill="none" rx="6.25" ry="6.25" style="stroke:#181818;stroke-width:1.5625;"/><line style="stroke:#181818;stroke-width:1.5625;" x1="891.5938" x2="891.5938" y1="800.3125" y2="812.8125"/><line style="stroke:#181818;stroke-width:1.5625;" x1="886.9063" x2="886.9063" y1="800.3125" y2="812.8125"/><line style="stroke:#181818;stroke-width:1.5625;" x1="885.3438" x2="897.8438" y1="806.5625" y2="806.5625"/><text fill="#000000" font-family="Arial" font-size="20.3125" lengthAdjust="spacing" textLength="82.8125" x="532.1875" y="827.1779">tenant_id</text></g><!--link notification_events to tenants--><g id="link_notification_events_tenants"><path codeLine="60" d="M771.875,502.375 C771.875,636.9844 771.875,780.3125 771.875,780.3125 C771.875,780.3125 836.0781,780.3125 885.8281,780.3125 " fill="none" id="notification_events-tenants" style="stroke:#181818;stroke-width:1.5625;"/><line style="stroke:#181818;stroke-width:1.5625;" x1="771.875" x2="762.5" y1="486.75" y2="474.25"/><line style="stroke:#181818;stroke-width:1.5625;" x1="771.875" x2="781.25" y1="486.75" y2="474.25"/><line style="stroke:#181818;stroke-width:1.5625;" x1="771.875" x2="771.875" y1="486.75" y2="474.25"/><ellipse cx="771.875" cy="496.125" fill="none" rx="6.25" ry="6.25" style="stroke:#181818;stroke-width:1.5625;"/><line style="stroke:#181818;stroke-width:1.5625;" x1="892.0781" x2="892.0781" y1="774.0625" y2="786.5625"/><line style="stroke:#181818;stroke-width:1.5625;" x1="887.3906" x2="887.3906" y1="774.0625" y2="786.5625"/><line style="stroke:#181818;stroke-width:1.5625;" x1="885.8281" x2="898.3281" y1="780.3125" y2="780.3125"/><text fill="#000000" font-family="Arial" font-size="20.3125" lengthAdjust="spacing" textLength="82.8125" x="687.5" y="711.1154">tenant_id</text></g><!--link notification_topics to customer_notification_preferences--><g id="link_notification_topics_customer_notification_preferences"><path codeLine="61" d="M348.2813,819.6875 C411.1406,819.6875 459.375,819.6875 459.375,819.6875 C459.375,819.6875 459.375,1011.5625 459.375,1096.6563 " fill="none" id="notification_topics-customer_notification_preferences" style="stroke:#181818;stroke-width:1.5625;"/><line style="stroke:#181818;stroke-width:1.5625;" x1="342.0313" x2="342.0313" y1="825.9375" y2="813.4375"/><line style="stroke:#181818;stroke-width:1.5625;" x1="346.7188" x2="346.7188" y1="825.9375" y2="813.4375"/><line style="stroke:#181818;stroke-width:1.5625;" x1="348.2813" x2="335.7813" y1="819.6875" y2="819.6875"/><line style="stroke:#181818;stroke-width:1.5625;" x1="459.375" x2="468.75" y1="1112.2813" y2="1124.7813"/><line style="stroke:#181818;stroke-width:1.5625;" x1="459.375" x2="450" y1="1112.2813" y2="1124.7813"/><line style="stroke:#181818;stroke-width:1.5625;" x1="459.375" x2="459.375" y1="1112.2813" y2="1124.7813"/><ellipse cx="459.375" cy="1102.9063" fill="none" rx="6.25" ry="6.25" style="stroke:#181818;stroke-width:1.5625;"/><text fill="#000000" font-family="Arial" font-size="20.3125" lengthAdjust="spacing" textLength="70.3125" x="387.5" y="931.0529">topic_id</text></g><!--link notification_channels to customer_notification_preferences--><g id="link_notification_channels_customer_notification_preferences"><path codeLine="62" d="M335.2344,555.4688 C403.7188,555.4688 462.5,555.4688 462.5,555.4688 C462.5,555.4688 462.5,970.1719 462.5,1096.4375 " fill="none" id="notification_channels-customer_notification_preferences" style="stroke:#181818;stroke-width:1.5625;"/><line style="stroke:#181818;stroke-width:1.5625;" x1="328.9844" x2="328.9844" y1="561.7188" y2="549.2188"/><line style="stroke:#181818;stroke-width:1.5625;" x1="333.6719" x2="333.6719" y1="561.7188" y2="549.2188"/><line style="stroke:#181818;stroke-width:1.5625;" x1="335.2344" x2="322.7344" y1="555.4688" y2="555.4688"/><line style="stroke:#181818;stroke-width:1.5625;" x1="462.5" x2="471.875" y1="1112.0625" y2="1124.5625"/><line style="stroke:#181818;stroke-width:1.5625;" x1="462.5" x2="453.125" y1="1112.0625" y2="1124.5625"/><line style="stroke:#181818;stroke-width:1.5625;" x1="462.5" x2="462.5" y1="1112.0625" y2="1124.5625"/><ellipse cx="462.5" cy="1102.6875" fill="none" rx="6.25" ry="6.25" style="stroke:#181818;stroke-width:1.5625;"/><text fill="#000000" font-family="Arial" font-size="20.3125" lengthAdjust="spacing" textLength="96.875" x="464.0625" y="790.756">channel_id</text></g><!--link notification_templates to service_reminder_rules--><g id="link_notification_templates_service_reminder_rules"><path codeLine="63" d="M343.75,362.1094 C343.75,548.3281 343.75,926.5625 343.75,926.5625 C343.75,926.5625 402.9844,926.5625 481.125,926.5625 " fill="none" id="notification_templates-service_reminder_rules" style="stroke:#181818;stroke-width:1.5625;"/><line style="stroke:#181818;stroke-width:1.5625;" x1="337.5" x2="350" y1="355.8594" y2="355.8594"/><line style="stroke:#181818;stroke-width:1.5625;" x1="337.5" x2="350" y1="360.5469" y2="360.5469"/><line style="stroke:#181818;stroke-width:1.5625;" x1="343.75" x2="343.75" y1="362.1094" y2="349.6094"/><line style="stroke:#181818;stroke-width:1.5625;" x1="496.75" x2="509.25" y1="926.5625" y2="917.1875"/><line style="stroke:#181818;stroke-width:1.5625;" x1="496.75" x2="509.25" y1="926.5625" y2="935.9375"/><line style="stroke:#181818;stroke-width:1.5625;" x1="496.75" x2="509.25" y1="926.5625" y2="926.5625"/><ellipse cx="487.375" cy="926.5625" fill="none" rx="6.25" ry="6.25" style="stroke:#181818;stroke-width:1.5625;"/><text fill="#000000" font-family="Arial" font-size="20.3125" lengthAdjust="spacing" textLength="104.6875" x="345.3125" y="741.4591">template_id</text></g><!--link notification_templates to notification_events--><g id="link_notification_templates_notification_events"><path codeLine="64" d="M373.9688,253.125 C407.8438,253.125 402.9375,253.125 436.8594,253.125 " fill="none" id="notification_templates-notification_events" style="stroke:#181818;stroke-width:1.5625;"/><line style="stroke:#181818;stroke-width:1.5625;" x1="367.7188" x2="367.7188" y1="259.375" y2="246.875"/><line style="stroke:#181818;stroke-width:1.5625;" x1="372.4063" x2="372.4063" y1="259.375" y2="246.875"/><line style="stroke:#181818;stroke-width:1.5625;" x1="373.9688" x2="361.4688" y1="253.125" y2="253.125"/><line style="stroke:#181818;stroke-width:1.5625;" x1="452.4844" x2="464.9844" y1="253.125" y2="243.75"/><line style="stroke:#181818;stroke-width:1.5625;" x1="452.4844" x2="464.9844" y1="253.125" y2="262.5"/><line style="stroke:#181818;stroke-width:1.5625;" x1="452.4844" x2="464.9844" y1="253.125" y2="253.125"/><ellipse cx="443.1094" cy="253.125" fill="none" rx="6.25" ry="6.25" style="stroke:#181818;stroke-width:1.5625;"/><text fill="#000000" font-family="Arial" font-size="20.3125" lengthAdjust="spacing" textLength="104.6875" x="306.9844" y="273.7404">template_id</text></g><!--link bookings to notification_events--><g id="link_bookings_notification_events"><path codeLine="65" d="M260.4063,43.75 C373.6875,43.75 629.6875,43.75 629.6875,43.75 C629.6875,43.75 629.6875,69.0625 629.6875,128.5625 " fill="none" id="bookings-notification_events" style="stroke:#181818;stroke-width:1.5625;"/><line style="stroke:#181818;stroke-width:1.5625;" x1="254.1563" x2="254.1563" y1="50" y2="37.5"/><line style="stroke:#181818;stroke-width:1.5625;" x1="258.8438" x2="258.8438" y1="50" y2="37.5"/><line style="stroke:#181818;stroke-width:1.5625;" x1="260.4063" x2="247.9063" y1="43.75" y2="43.75"/><line style="stroke:#181818;stroke-width:1.5625;" x1="629.6875" x2="639.0625" y1="144.1875" y2="156.6875"/><line style="stroke:#181818;stroke-width:1.5625;" x1="629.6875" x2="620.3125" y1="144.1875" y2="156.6875"/><line style="stroke:#181818;stroke-width:1.5625;" x1="629.6875" x2="629.6875" y1="144.1875" y2="156.6875"/><ellipse cx="629.6875" cy="134.8125" fill="none" rx="6.25" ry="6.25" style="stroke:#181818;stroke-width:1.5625;"/><text fill="#000000" font-family="Arial" font-size="20.3125" lengthAdjust="spacing" textLength="96.875" x="396.8281" y="64.3654">booking_id</text></g><!--SRC=[hLJRQjj047tNLmpkGoyWi9Cg51C2iXFJj8qTOgSFVH7RrLXQijeHgrMAYVrL_OJ-M5Uo8ikrd3YaJu8vCxDppfdHMpYdH2X1SDA78IMv4fnnyUUtSYJE3HW2BQBOG2WqSYD8ER484RZGNAAJtGcLCiqIo68MqY-X8fWpcJKHAHIQHOf0siJK0C9KGC_hDYCuPxaq8r9cp184Nmic6tZA-1sBS6eM4g6OXwbeQmfKHfW5F3W00viRQSfLE2H96jwCFetyqR10I8Ueg-ZnySUUvpahnwcQGsUV8fsoR_L4Hv4HSmiLcWGyPagXp3h0CcX5obg03o12wCFjxUKvd9vUVpqxAyEkMtuCAgPCq4mPFQPmihBtuRj_C_pitxppkk_Bi2fqseHxtIekie1Pl-uBS32PVBlmnpPkQUvXO3199JFOGg66Nit1s5sAK0TuRsTeczfwAb9XmK2JRF8wgXAuNOq2Vfp9fdoPJiQ3fxbHAdWRiJB-lvsfoVnhZRUn9c4gP8Rqua1tIi5Q6ApZhsRmayYUKBJ7j4hgTdJZM7dZkuvj4khwsacxeK5AOciNZZnlNPWPPlAifMF6OmnpYM4mjnVSXzdbrSLqvbzTptwiyU8nPdQGLN7bxSUv8jTTBYkDYZThjPmzft1mnNh73asl37rXz-NITUa1U9uPIknzRUMa6kUeKN4i6nKLEtrg8LxGgQfvGgEgMORwNd0CDDh_gltp1jgQjoPLRzOpBTeqsgwlLlYPYisYEty1]--></g></svg>