<?xml version="1.0" encoding="us-ascii" standalone="no"?><svg xmlns="http://www.w3.org/2000/svg" xmlns:xlink="http://www.w3.org/1999/xlink" contentStyleType="text/css" height="1668.75px" preserveAspectRatio="none" style="width:1540px;height:1668px;background:#FFFFFF;" version="1.1" viewBox="0 0 1540 1668" width="1540.625px" zoomAndPan="magnify"><defs/><g><!--cluster Dominio 3: Recursos y Agenda--><g id="cluster_Dominio 3: Recursos y Agenda"><rect fill="none" height="1310.9375" rx="3.9063" ry="3.9063" style="stroke:#000000;stroke-width:2.34375;" width="1520.3125" x="10.9375" y="10.9375"/><text fill="#000000" font-family="Arial" font-size="21.875" font-weight="bold" lengthAdjust="spacing" textLength="331.25" x="605.4688" y="34.581">Dominio 3: Recursos y Agenda</text></g><!--class resource_types--><g id="elem_resource_types"><rect codeLine="15" fill="#F1F1F1" height="141.2415" id="resource_types" rx="3.9063" ry="3.9063" style="stroke:#181818;stroke-width:0.78125;" width="248.4375" x="35.9375" y="987.5"/><text fill="#000000" font-family="Arial" font-size="21.875" lengthAdjust="spacing" textLength="153.125" x="83.5938" y="1015.831">resource_types</text><line style="stroke:#181818;stroke-width:0.78125;" x1="37.5" x2="282.8125" y1="1028.2791" y2="1028.2791"/><ellipse cx="53.125" cy="1049.4499" fill="#000000" rx="4.6875" ry="4.6875" style="stroke:#000000;stroke-width:1.5625;"/><text fill="#000000" font-family="Arial" font-size="21.875" lengthAdjust="spacing" textLength="143.75" x="67.1875" y="1055.0476">id : UUID &#171;PK&#187;</text><line style="stroke:#181818;stroke-width:1.5625;" x1="37.5" x2="282.8125" y1="1065.9332" y2="1065.9332"/><text fill="#000000" font-family="Arial" font-size="21.875" lengthAdjust="spacing" textLength="218.75" x="45.3125" y="1092.7017">tenant_id : UUID &#171;FK&#187;</text><text fill="#000000" font-family="Arial" font-size="21.875" lengthAdjust="spacing" textLength="229.6875" x="45.3125" y="1117.8558">name : VARCHAR(100)</text></g><!--class resources--><g id="elem_resources"><rect codeLine="22" fill="#F1F1F1" height="216.7038" id="resources" rx="3.9063" ry="3.9063" style="stroke:#181818;stroke-width:0.78125;" width="248.4375" x="378.125" y="949.2188"/><text fill="#000000" font-family="Arial" font-size="21.875" lengthAdjust="spacing" textLength="98.4375" x="453.125" y="977.5497">resources</text><line style="stroke:#181818;stroke-width:0.78125;" x1="379.6875" x2="625" y1="989.9979" y2="989.9979"/><ellipse cx="395.3125" cy="1011.1687" fill="#000000" rx="4.6875" ry="4.6875" style="stroke:#000000;stroke-width:1.5625;"/><text fill="#000000" font-family="Arial" font-size="21.875" lengthAdjust="spacing" textLength="143.75" x="409.375" y="1016.7664">id : UUID &#171;PK&#187;</text><line style="stroke:#181818;stroke-width:1.5625;" x1="379.6875" x2="625" y1="1027.652" y2="1027.652"/><text fill="#000000" font-family="Arial" font-size="21.875" lengthAdjust="spacing" textLength="218.75" x="387.5" y="1054.4205">tenant_id : UUID &#171;FK&#187;</text><text fill="#000000" font-family="Arial" font-size="21.875" lengthAdjust="spacing" textLength="225" x="387.5" y="1079.5746">branch_id : UUID &#171;FK&#187;</text><text fill="#000000" font-family="Arial" font-size="21.875" lengthAdjust="spacing" textLength="198.4375" x="387.5" y="1104.7287">type_id : UUID &#171;FK&#187;</text><text fill="#000000" font-family="Arial" font-size="21.875" lengthAdjust="spacing" textLength="229.6875" x="387.5" y="1129.8828">name : VARCHAR(150)</text><text fill="#000000" font-family="Arial" font-size="21.875" lengthAdjust="spacing" textLength="132.8125" x="387.5" y="1155.0369">capacity : INT</text></g><!--class resource_availability_rules--><g id="elem_resource_availability_rules"><rect codeLine="32" fill="#F1F1F1" height="241.8579" id="resource_availability_rules" rx="3.9063" ry="3.9063" style="stroke:#181818;stroke-width:0.78125;" width="271.875" x="767.1875" y="535.1563"/><text fill="#000000" font-family="Arial" font-size="21.875" lengthAdjust="spacing" textLength="262.5" x="771.875" y="563.4872">resource_availability_rules</text><line style="stroke:#181818;stroke-width:0.78125;" x1="768.75" x2="1037.5" y1="575.9354" y2="575.9354"/><ellipse cx="784.375" cy="597.1062" fill="#000000" rx="4.6875" ry="4.6875" style="stroke:#000000;stroke-width:1.5625;"/><text fill="#000000" font-family="Arial" font-size="21.875" lengthAdjust="spacing" textLength="143.75" x="798.4375" y="602.7039">id : UUID &#171;PK&#187;</text><line style="stroke:#181818;stroke-width:1.5625;" x1="768.75" x2="1037.5" y1="613.5895" y2="613.5895"/><text fill="#000000" font-family="Arial" font-size="21.875" lengthAdjust="spacing" textLength="243.75" x="776.5625" y="640.358">resource_id : UUID &#171;FK&#187;</text><text fill="#000000" font-family="Arial" font-size="21.875" lengthAdjust="spacing" textLength="251.5625" x="776.5625" y="665.5121">day_of_week : SMALLINT</text><text fill="#000000" font-family="Arial" font-size="21.875" lengthAdjust="spacing" textLength="165.625" x="776.5625" y="690.6662">start_time : TIME</text><text fill="#000000" font-family="Arial" font-size="21.875" lengthAdjust="spacing" textLength="159.375" x="776.5625" y="715.8203">end_time : TIME</text><text fill="#000000" font-family="Arial" font-size="21.875" lengthAdjust="spacing" textLength="178.125" x="776.5625" y="740.9744">valid_from : DATE</text><text fill="#000000" font-family="Arial" font-size="21.875" lengthAdjust="spacing" textLength="153.125" x="776.5625" y="766.1285">valid_to : DATE</text></g><!--class resource_breaks--><g id="elem_resource_breaks"><rect codeLine="43" fill="#F1F1F1" height="166.3956" id="resource_breaks" rx="3.9063" ry="3.9063" style="stroke:#181818;stroke-width:0.78125;" width="326.5625" x="1179.6875" y="573.4375"/><text fill="#000000" font-family="Arial" font-size="21.875" lengthAdjust="spacing" textLength="167.1875" x="1259.375" y="601.7685">resource_breaks</text><line style="stroke:#181818;stroke-width:0.78125;" x1="1181.25" x2="1504.6875" y1="614.2166" y2="614.2166"/><ellipse cx="1196.875" cy="635.3874" fill="#000000" rx="4.6875" ry="4.6875" style="stroke:#000000;stroke-width:1.5625;"/><text fill="#000000" font-family="Arial" font-size="21.875" lengthAdjust="spacing" textLength="143.75" x="1210.9375" y="640.9851">id : UUID &#171;PK&#187;</text><line style="stroke:#181818;stroke-width:1.5625;" x1="1181.25" x2="1504.6875" y1="651.8707" y2="651.8707"/><text fill="#000000" font-family="Arial" font-size="21.875" lengthAdjust="spacing" textLength="307.8125" x="1189.0625" y="678.6392">availability_rule_id : UUID &#171;FK&#187;</text><text fill="#000000" font-family="Arial" font-size="21.875" lengthAdjust="spacing" textLength="165.625" x="1189.0625" y="703.7933">start_time : TIME</text><text fill="#000000" font-family="Arial" font-size="21.875" lengthAdjust="spacing" textLength="159.375" x="1189.0625" y="728.9474">end_time : TIME</text></g><!--class resource_time_off--><g id="elem_resource_time_off"><rect codeLine="51" fill="#F1F1F1" height="191.5497" id="resource_time_off" rx="3.9063" ry="3.9063" style="stroke:#181818;stroke-width:0.78125;" width="328.125" x="739.0625" y="832.0313"/><text fill="#000000" font-family="Arial" font-size="21.875" lengthAdjust="spacing" textLength="178.125" x="814.0625" y="860.3622">resource_time_off</text><line style="stroke:#181818;stroke-width:0.78125;" x1="740.625" x2="1065.625" y1="872.8104" y2="872.8104"/><ellipse cx="756.25" cy="893.9812" fill="#000000" rx="4.6875" ry="4.6875" style="stroke:#000000;stroke-width:1.5625;"/><text fill="#000000" font-family="Arial" font-size="21.875" lengthAdjust="spacing" textLength="143.75" x="770.3125" y="899.5789">id : UUID &#171;PK&#187;</text><line style="stroke:#181818;stroke-width:1.5625;" x1="740.625" x2="1065.625" y1="910.4645" y2="910.4645"/><text fill="#000000" font-family="Arial" font-size="21.875" lengthAdjust="spacing" textLength="243.75" x="748.4375" y="937.233">resource_id : UUID &#171;FK&#187;</text><text fill="#000000" font-family="Arial" font-size="21.875" lengthAdjust="spacing" textLength="309.375" x="748.4375" y="962.3871">start_datetime : TIMESTAMPTZ</text><text fill="#000000" font-family="Arial" font-size="21.875" lengthAdjust="spacing" textLength="303.125" x="748.4375" y="987.5412">end_datetime : TIMESTAMPTZ</text><text fill="#000000" font-family="Arial" font-size="21.875" lengthAdjust="spacing" textLength="243.75" x="748.4375" y="1012.6953">reason : VARCHAR(255)</text></g><!--class resource_service_overrides--><g id="elem_resource_service_overrides"><rect codeLine="60" fill="#F1F1F1" height="216.7038" id="resource_service_overrides" rx="3.9063" ry="3.9063" style="stroke:#181818;stroke-width:0.78125;" width="334.375" x="735.9375" y="1078.9063"/><text fill="#000000" font-family="Arial" font-size="21.875" lengthAdjust="spacing" textLength="275" x="765.625" y="1107.2372">resource_service_overrides</text><line style="stroke:#181818;stroke-width:0.78125;" x1="737.5" x2="1068.75" y1="1119.6854" y2="1119.6854"/><ellipse cx="753.125" cy="1140.8562" fill="#000000" rx="4.6875" ry="4.6875" style="stroke:#000000;stroke-width:1.5625;"/><text fill="#000000" font-family="Arial" font-size="21.875" lengthAdjust="spacing" textLength="143.75" x="767.1875" y="1146.4539">id : UUID &#171;PK&#187;</text><line style="stroke:#181818;stroke-width:1.5625;" x1="737.5" x2="1068.75" y1="1157.3395" y2="1157.3395"/><text fill="#000000" font-family="Arial" font-size="21.875" lengthAdjust="spacing" textLength="218.75" x="745.3125" y="1184.108">tenant_id : UUID &#171;FK&#187;</text><text fill="#000000" font-family="Arial" font-size="21.875" lengthAdjust="spacing" textLength="243.75" x="745.3125" y="1209.2621">resource_id : UUID &#171;FK&#187;</text><text fill="#000000" font-family="Arial" font-size="21.875" lengthAdjust="spacing" textLength="226.5625" x="745.3125" y="1234.4162">service_id : UUID &#171;FK&#187;</text><text fill="#000000" font-family="Arial" font-size="21.875" lengthAdjust="spacing" textLength="315.625" x="745.3125" y="1259.5703">duration_override_minutes : INT</text><text fill="#000000" font-family="Arial" font-size="21.875" lengthAdjust="spacing" textLength="314.0625" x="745.3125" y="1284.7244">price_override : DECIMAL(10,2)</text></g><!--class calendar_sync_accounts--><g id="elem_calendar_sync_accounts"><rect codeLine="70" fill="#F1F1F1" height="166.3956" id="calendar_sync_accounts" rx="3.9063" ry="3.9063" style="stroke:#181818;stroke-width:0.78125;" width="306.25" x="750" y="314.0625"/><text fill="#000000" font-family="Arial" font-size="21.875" lengthAdjust="spacing" textLength="245.3125" x="780.4688" y="342.3935">calendar_sync_accounts</text><line style="stroke:#181818;stroke-width:0.78125;" x1="751.5625" x2="1054.6875" y1="354.8416" y2="354.8416"/><ellipse cx="767.1875" cy="376.0124" fill="#000000" rx="4.6875" ry="4.6875" style="stroke:#000000;stroke-width:1.5625;"/><text fill="#000000" font-family="Arial" font-size="21.875" lengthAdjust="spacing" textLength="143.75" x="781.25" y="381.6101">id : UUID &#171;PK&#187;</text><line style="stroke:#181818;stroke-width:1.5625;" x1="751.5625" x2="1054.6875" y1="392.4957" y2="392.4957"/><text fill="#000000" font-family="Arial" font-size="21.875" lengthAdjust="spacing" textLength="287.5" x="759.375" y="419.2642">resource_id : UUID &#171;FK, UQ&#187;</text><text fill="#000000" font-family="Arial" font-size="21.875" lengthAdjust="spacing" textLength="243.75" x="759.375" y="444.4183">provider : VARCHAR(50)</text><text fill="#000000" font-family="Arial" font-size="21.875" lengthAdjust="spacing" textLength="287.5" x="759.375" y="469.5724">sync_token : VARCHAR(512)</text></g><!--class agenda_daily_snapshots--><g id="elem_agenda_daily_snapshots"><rect codeLine="78" fill="#F1F1F1" height="191.5497" id="agenda_daily_snapshots" rx="3.9063" ry="3.9063" style="stroke:#181818;stroke-width:0.78125;" width="365.625" x="720.3125" y="66.4063"/><text fill="#000000" font-family="Arial" font-size="21.875" lengthAdjust="spacing" textLength="246.875" x="779.6875" y="94.7372">agenda_daily_snapshots</text><line style="stroke:#181818;stroke-width:0.78125;" x1="721.875" x2="1084.375" y1="107.1854" y2="107.1854"/><ellipse cx="737.5" cy="128.3562" fill="#000000" rx="4.6875" ry="4.6875" style="stroke:#000000;stroke-width:1.5625;"/><text fill="#000000" font-family="Arial" font-size="21.875" lengthAdjust="spacing" textLength="143.75" x="751.5625" y="133.9539">id : UUID &#171;PK&#187;</text><line style="stroke:#181818;stroke-width:1.5625;" x1="721.875" x2="1084.375" y1="144.8395" y2="144.8395"/><text fill="#000000" font-family="Arial" font-size="21.875" lengthAdjust="spacing" textLength="243.75" x="729.6875" y="171.608">resource_id : UUID &#171;FK&#187;</text><text fill="#000000" font-family="Arial" font-size="21.875" lengthAdjust="spacing" textLength="120.3125" x="729.6875" y="196.7621">date : DATE</text><text fill="#000000" font-family="Arial" font-size="21.875" lengthAdjust="spacing" textLength="162.5" x="729.6875" y="221.9162">timeline : JSONB</text><text fill="#000000" font-family="Arial" font-size="21.875" lengthAdjust="spacing" textLength="346.875" x="729.6875" y="247.0703">last_calculated_at : TIMESTAMPTZ</text></g><!--class services--><g id="elem_services"><rect fill="#F1F1F1" height="65.7791" id="services" rx="3.9063" ry="3.9063" style="stroke:#181818;stroke-width:0.78125;" width="90.625" x="1297.6563" y="1346.875"/><text fill="#000000" font-family="Arial" font-size="21.875" lengthAdjust="spacing" textLength="81.25" x="1302.3438" y="1375.206">services</text><line style="stroke:#181818;stroke-width:0.78125;" x1="1299.2188" x2="1386.7188" y1="1387.6541" y2="1387.6541"/><line style="stroke:#181818;stroke-width:0.78125;" x1="1299.2188" x2="1386.7188" y1="1400.1541" y2="1400.1541"/></g><!--class tenants--><g id="elem_tenants"><rect fill="#F1F1F1" height="65.7791" id="tenants" rx="3.9063" ry="3.9063" style="stroke:#181818;stroke-width:0.78125;" width="82.8125" x="1301.5625" y="1467.1875"/><text fill="#000000" font-family="Arial" font-size="21.875" lengthAdjust="spacing" textLength="73.4375" x="1306.25" y="1495.5185">tenants</text><line style="stroke:#181818;stroke-width:0.78125;" x1="1303.125" x2="1382.8125" y1="1507.9666" y2="1507.9666"/><line style="stroke:#181818;stroke-width:0.78125;" x1="1303.125" x2="1382.8125" y1="1520.4666" y2="1520.4666"/></g><!--class booking_locks--><g id="elem_booking_locks"><rect fill="#F1F1F1" height="65.7791" id="booking_locks" rx="3.9063" ry="3.9063" style="stroke:#181818;stroke-width:0.78125;" width="150" x="828.125" y="1351.5625"/><text fill="#000000" font-family="Arial" font-size="21.875" lengthAdjust="spacing" textLength="140.625" x="832.8125" y="1379.8935">booking_locks</text><line style="stroke:#181818;stroke-width:0.78125;" x1="829.6875" x2="976.5625" y1="1392.3416" y2="1392.3416"/><line style="stroke:#181818;stroke-width:0.78125;" x1="829.6875" x2="976.5625" y1="1404.8416" y2="1404.8416"/></g><!--class booking_resource_allocations--><g id="elem_booking_resource_allocations"><rect fill="#F1F1F1" height="65.7791" id="booking_resource_allocations" rx="3.9063" ry="3.9063" style="stroke:#181818;stroke-width:0.78125;" width="304.6875" x="750.7813" y="1471.875"/><text fill="#000000" font-family="Arial" font-size="21.875" lengthAdjust="spacing" textLength="295.3125" x="755.4688" y="1500.206">booking_resource_allocations</text><line style="stroke:#181818;stroke-width:0.78125;" x1="752.3438" x2="1053.9063" y1="1512.6541" y2="1512.6541"/><line style="stroke:#181818;stroke-width:0.78125;" x1="752.3438" x2="1053.9063" y1="1525.1541" y2="1525.1541"/></g><!--class schedule_overrides_history--><g id="elem_schedule_overrides_history"><rect fill="#F1F1F1" height="65.7791" id="schedule_overrides_history" rx="3.9063" ry="3.9063" style="stroke:#181818;stroke-width:0.78125;" width="281.25" x="762.5" y="1592.1875"/><text fill="#000000" font-family="Arial" font-size="21.875" lengthAdjust="spacing" textLength="271.875" x="767.1875" y="1620.5185">schedule_overrides_history</text><line style="stroke:#181818;stroke-width:0.78125;" x1="764.0625" x2="1042.1875" y1="1632.9666" y2="1632.9666"/><line style="stroke:#181818;stroke-width:0.78125;" x1="764.0625" x2="1042.1875" y1="1645.4666" y2="1645.4666"/></g><!--link resource_types to resources--><g id="link_resource_types_resources"><path codeLine="88" d="M297.1563,1057.8125 C327.5469,1057.8125 319.4219,1057.8125 349.8125,1057.8125 " fill="none" id="resource_types-resources" style="stroke:#181818;stroke-width:1.5625;"/><line style="stroke:#181818;stroke-width:1.5625;" x1="290.9063" x2="290.9063" y1="1064.0625" y2="1051.5625"/><line style="stroke:#181818;stroke-width:1.5625;" x1="295.5938" x2="295.5938" y1="1064.0625" y2="1051.5625"/><line style="stroke:#181818;stroke-width:1.5625;" x1="297.1563" x2="284.6563" y1="1057.8125" y2="1057.8125"/><line style="stroke:#181818;stroke-width:1.5625;" x1="365.4375" x2="377.9375" y1="1057.8125" y2="1048.4375"/><line style="stroke:#181818;stroke-width:1.5625;" x1="365.4375" x2="377.9375" y1="1057.8125" y2="1067.1875"/><line style="stroke:#181818;stroke-width:1.5625;" x1="365.4375" x2="377.9375" y1="1057.8125" y2="1057.8125"/><ellipse cx="356.0625" cy="1057.8125" fill="none" rx="6.25" ry="6.25" style="stroke:#181818;stroke-width:1.5625;"/><text fill="#000000" font-family="Arial" font-size="20.3125" lengthAdjust="spacing" textLength="65.625" x="264.1094" y="1078.4279">type_id</text></g><!--link resources to resource_availability_rules--><g id="link_resources_resource_availability_rules"><path codeLine="89" d="M543.75,936.6406 C543.75,817.7188 543.75,656.25 543.75,656.25 C543.75,656.25 636.9531,656.25 738.625,656.25 " fill="none" id="resources-resource_availability_rules" style="stroke:#181818;stroke-width:1.5625;"/><line style="stroke:#181818;stroke-width:1.5625;" x1="550" x2="537.5" y1="942.8906" y2="942.8906"/><line style="stroke:#181818;stroke-width:1.5625;" x1="550" x2="537.5" y1="938.2031" y2="938.2031"/><line style="stroke:#181818;stroke-width:1.5625;" x1="543.75" x2="543.75" y1="936.6406" y2="949.1406"/><line style="stroke:#181818;stroke-width:1.5625;" x1="754.25" x2="766.75" y1="656.25" y2="646.875"/><line style="stroke:#181818;stroke-width:1.5625;" x1="754.25" x2="766.75" y1="656.25" y2="665.625"/><line style="stroke:#181818;stroke-width:1.5625;" x1="754.25" x2="766.75" y1="656.25" y2="656.25"/><ellipse cx="744.875" cy="656.25" fill="none" rx="6.25" ry="6.25" style="stroke:#181818;stroke-width:1.5625;"/><text fill="#000000" font-family="Arial" font-size="20.3125" lengthAdjust="spacing" textLength="104.6875" x="437.5" y="711.8185">resource_id</text></g><!--link resource_availability_rules to resource_breaks--><g id="link_resource_availability_rules_resource_breaks"><path codeLine="90" d="M1051.7813,656.25 C1096.1875,656.25 1105.3281,656.25 1151.5156,656.25 " fill="none" id="resource_availability_rules-resource_breaks" style="stroke:#181818;stroke-width:1.5625;"/><line style="stroke:#181818;stroke-width:1.5625;" x1="1045.5313" x2="1045.5313" y1="662.5" y2="650"/><line style="stroke:#181818;stroke-width:1.5625;" x1="1050.2188" x2="1050.2188" y1="662.5" y2="650"/><line style="stroke:#181818;stroke-width:1.5625;" x1="1051.7813" x2="1039.2813" y1="656.25" y2="656.25"/><line style="stroke:#181818;stroke-width:1.5625;" x1="1167.1406" x2="1179.6406" y1="656.25" y2="646.875"/><line style="stroke:#181818;stroke-width:1.5625;" x1="1167.1406" x2="1179.6406" y1="656.25" y2="665.625"/><line style="stroke:#181818;stroke-width:1.5625;" x1="1167.1406" x2="1179.6406" y1="656.25" y2="656.25"/><ellipse cx="1157.7656" cy="656.25" fill="none" rx="6.25" ry="6.25" style="stroke:#181818;stroke-width:1.5625;"/><text fill="#000000" font-family="Arial" font-size="20.3125" lengthAdjust="spacing" textLength="162.5" x="945.3906" y="676.8654">availability_rule_id</text></g><!--link resources to resource_time_off--><g id="link_resources_resource_time_off"><path codeLine="91" d="M639.4531,999.2188 C674.8438,999.2188 673.2969,999.2188 710.6563,999.2188 " fill="none" id="resources-resource_time_off" style="stroke:#181818;stroke-width:1.5625;"/><line style="stroke:#181818;stroke-width:1.5625;" x1="633.2031" x2="633.2031" y1="1005.4688" y2="992.9688"/><line style="stroke:#181818;stroke-width:1.5625;" x1="637.8906" x2="637.8906" y1="1005.4688" y2="992.9688"/><line style="stroke:#181818;stroke-width:1.5625;" x1="639.4531" x2="626.9531" y1="999.2188" y2="999.2188"/><line style="stroke:#181818;stroke-width:1.5625;" x1="726.2813" x2="738.7813" y1="999.2188" y2="989.8438"/><line style="stroke:#181818;stroke-width:1.5625;" x1="726.2813" x2="738.7813" y1="999.2188" y2="1008.5938"/><line style="stroke:#181818;stroke-width:1.5625;" x1="726.2813" x2="738.7813" y1="999.2188" y2="999.2188"/><ellipse cx="716.9063" cy="999.2188" fill="none" rx="6.25" ry="6.25" style="stroke:#181818;stroke-width:1.5625;"/><text fill="#000000" font-family="Arial" font-size="20.3125" lengthAdjust="spacing" textLength="104.6875" x="576.625" y="1019.8341">resource_id</text></g><!--link resources to resource_service_overrides--><g id="link_resources_resource_service_overrides"><path codeLine="92" d="M639.4531,1122.6563 C673.9219,1122.6563 671.2813,1122.6563 707.75,1122.6563 " fill="none" id="resources-resource_service_overrides" style="stroke:#181818;stroke-width:1.5625;"/><line style="stroke:#181818;stroke-width:1.5625;" x1="633.2031" x2="633.2031" y1="1128.9063" y2="1116.4063"/><line style="stroke:#181818;stroke-width:1.5625;" x1="637.8906" x2="637.8906" y1="1128.9063" y2="1116.4063"/><line style="stroke:#181818;stroke-width:1.5625;" x1="639.4531" x2="626.9531" y1="1122.6563" y2="1122.6563"/><line style="stroke:#181818;stroke-width:1.5625;" x1="723.375" x2="735.875" y1="1122.6563" y2="1113.2813"/><line style="stroke:#181818;stroke-width:1.5625;" x1="723.375" x2="735.875" y1="1122.6563" y2="1132.0313"/><line style="stroke:#181818;stroke-width:1.5625;" x1="723.375" x2="735.875" y1="1122.6563" y2="1122.6563"/><ellipse cx="714" cy="1122.6563" fill="none" rx="6.25" ry="6.25" style="stroke:#181818;stroke-width:1.5625;"/><text fill="#000000" font-family="Arial" font-size="20.3125" lengthAdjust="spacing" textLength="104.6875" x="575.1563" y="1143.2716">resource_id</text></g><!--link resources to calendar_sync_accounts--><g id="link_resources_calendar_sync_accounts"><path codeLine="93" d="M460.9375,936.1719 C460.9375,748.4531 460.9375,396.875 460.9375,396.875 C460.9375,396.875 598.5625,396.875 726.2656,396.875 " fill="none" id="resources-calendar_sync_accounts" style="stroke:#181818;stroke-width:1.5625;"/><line style="stroke:#181818;stroke-width:1.5625;" x1="467.1875" x2="454.6875" y1="942.4219" y2="942.4219"/><line style="stroke:#181818;stroke-width:1.5625;" x1="467.1875" x2="454.6875" y1="937.7344" y2="937.7344"/><line style="stroke:#181818;stroke-width:1.5625;" x1="460.9375" x2="460.9375" y1="936.1719" y2="948.6719"/><line style="stroke:#181818;stroke-width:1.5625;" x1="732.5156" x2="749.7031" y1="396.875" y2="396.875"/><ellipse cx="732.5156" cy="396.875" fill="none" rx="6.25" ry="6.25" style="stroke:#181818;stroke-width:1.5625;"/><line style="stroke:#181818;stroke-width:1.5625;" x1="743.4531" x2="743.4531" y1="390.625" y2="403.125"/><text fill="#000000" font-family="Arial" font-size="20.3125" lengthAdjust="spacing" textLength="104.6875" x="354.6875" y="549.006">resource_id</text></g><!--link resources to agenda_daily_snapshots--><g id="link_resources_agenda_daily_snapshots"><path codeLine="94" d="M639.625,974.2188 C691.8438,974.2188 728.125,974.2188 728.125,974.2188 C728.125,974.2188 728.125,501.9375 728.125,286.9219 " fill="none" id="resources-agenda_daily_snapshots" style="stroke:#181818;stroke-width:1.5625;"/><line style="stroke:#181818;stroke-width:1.5625;" x1="633.375" x2="633.375" y1="980.4688" y2="967.9688"/><line style="stroke:#181818;stroke-width:1.5625;" x1="638.0625" x2="638.0625" y1="980.4688" y2="967.9688"/><line style="stroke:#181818;stroke-width:1.5625;" x1="639.625" x2="627.125" y1="974.2188" y2="974.2188"/><line style="stroke:#181818;stroke-width:1.5625;" x1="728.125" x2="718.75" y1="271.2969" y2="258.7969"/><line style="stroke:#181818;stroke-width:1.5625;" x1="728.125" x2="737.5" y1="271.2969" y2="258.7969"/><line style="stroke:#181818;stroke-width:1.5625;" x1="728.125" x2="728.125" y1="271.2969" y2="258.7969"/><ellipse cx="728.125" cy="280.6719" fill="none" rx="6.25" ry="6.25" style="stroke:#181818;stroke-width:1.5625;"/><text fill="#000000" font-family="Arial" font-size="20.3125" lengthAdjust="spacing" textLength="104.6875" x="621.875" y="687.631">resource_id</text></g><!--link resource_service_overrides to services--><g id="link_resource_service_overrides_services"><path codeLine="95" d="M1065.625,1324.2656 C1065.625,1368.8281 1065.625,1382.0313 1065.625,1382.0313 C1065.625,1382.0313 1205.8906,1382.0313 1284.6719,1382.0313 " fill="none" id="resource_service_overrides-services" style="stroke:#181818;stroke-width:1.5625;"/><line style="stroke:#181818;stroke-width:1.5625;" x1="1065.625" x2="1056.25" y1="1308.6406" y2="1296.1406"/><line style="stroke:#181818;stroke-width:1.5625;" x1="1065.625" x2="1075" y1="1308.6406" y2="1296.1406"/><line style="stroke:#181818;stroke-width:1.5625;" x1="1065.625" x2="1065.625" y1="1308.6406" y2="1296.1406"/><ellipse cx="1065.625" cy="1318.0156" fill="none" rx="6.25" ry="6.25" style="stroke:#181818;stroke-width:1.5625;"/><line style="stroke:#181818;stroke-width:1.5625;" x1="1290.9219" x2="1290.9219" y1="1375.7813" y2="1388.2813"/><line style="stroke:#181818;stroke-width:1.5625;" x1="1286.2344" x2="1286.2344" y1="1375.7813" y2="1388.2813"/><line style="stroke:#181818;stroke-width:1.5625;" x1="1284.6719" x2="1297.1719" y1="1382.0313" y2="1382.0313"/><text fill="#000000" font-family="Arial" font-size="20.3125" lengthAdjust="spacing" textLength="89.0625" x="1047.8281" y="1402.6466">service_id</text></g><!--link resource_service_overrides to tenants--><g id="link_resource_service_overrides_tenants"><path codeLine="96" d="M1060.9375,1324.4219 C1060.9375,1415.4219 1060.9375,1502.3438 1060.9375,1502.3438 C1060.9375,1502.3438 1210.4063,1502.3438 1288.8594,1502.3438 " fill="none" id="resource_service_overrides-tenants" style="stroke:#181818;stroke-width:1.5625;"/><line style="stroke:#181818;stroke-width:1.5625;" x1="1060.9375" x2="1051.5625" y1="1308.7969" y2="1296.2969"/><line style="stroke:#181818;stroke-width:1.5625;" x1="1060.9375" x2="1070.3125" y1="1308.7969" y2="1296.2969"/><line style="stroke:#181818;stroke-width:1.5625;" x1="1060.9375" x2="1060.9375" y1="1308.7969" y2="1296.2969"/><ellipse cx="1060.9375" cy="1318.1719" fill="none" rx="6.25" ry="6.25" style="stroke:#181818;stroke-width:1.5625;"/><line style="stroke:#181818;stroke-width:1.5625;" x1="1295.1094" x2="1295.1094" y1="1496.0938" y2="1508.5938"/><line style="stroke:#181818;stroke-width:1.5625;" x1="1290.4219" x2="1290.4219" y1="1496.0938" y2="1508.5938"/><line style="stroke:#181818;stroke-width:1.5625;" x1="1288.8594" x2="1301.3594" y1="1502.3438" y2="1502.3438"/><text fill="#000000" font-family="Arial" font-size="20.3125" lengthAdjust="spacing" textLength="82.8125" x="1079.6875" y="1522.9591">tenant_id</text></g><!--link resources to booking_locks--><g id="link_resources_booking_locks"><path codeLine="97" d="M565.625,1179.0469 C565.625,1274.0469 565.625,1384.375 565.625,1384.375 C565.625,1384.375 700.2031,1384.375 799.6719,1384.375 " fill="none" id="resources-booking_locks" style="stroke:#181818;stroke-width:1.5625;"/><line style="stroke:#181818;stroke-width:1.5625;" x1="559.375" x2="571.875" y1="1172.7969" y2="1172.7969"/><line style="stroke:#181818;stroke-width:1.5625;" x1="559.375" x2="571.875" y1="1177.4844" y2="1177.4844"/><line style="stroke:#181818;stroke-width:1.5625;" x1="565.625" x2="565.625" y1="1179.0469" y2="1166.5469"/><line style="stroke:#181818;stroke-width:1.5625;" x1="815.2969" x2="827.7969" y1="1384.375" y2="1375"/><line style="stroke:#181818;stroke-width:1.5625;" x1="815.2969" x2="827.7969" y1="1384.375" y2="1393.75"/><line style="stroke:#181818;stroke-width:1.5625;" x1="815.2969" x2="827.7969" y1="1384.375" y2="1384.375"/><ellipse cx="805.9219" cy="1384.375" fill="none" rx="6.25" ry="6.25" style="stroke:#181818;stroke-width:1.5625;"/><text fill="#000000" font-family="Arial" font-size="20.3125" lengthAdjust="spacing" textLength="104.6875" x="481.5469" y="1404.9904">resource_id</text></g><!--link resources to booking_resource_allocations--><g id="link_resources_booking_resource_allocations"><path codeLine="98" d="M503.125,1179.0625 C503.125,1311.3281 503.125,1504.6875 503.125,1504.6875 C503.125,1504.6875 609.5938,1504.6875 722.6406,1504.6875 " fill="none" id="resources-booking_resource_allocations" style="stroke:#181818;stroke-width:1.5625;"/><line style="stroke:#181818;stroke-width:1.5625;" x1="496.875" x2="509.375" y1="1172.8125" y2="1172.8125"/><line style="stroke:#181818;stroke-width:1.5625;" x1="496.875" x2="509.375" y1="1177.5" y2="1177.5"/><line style="stroke:#181818;stroke-width:1.5625;" x1="503.125" x2="503.125" y1="1179.0625" y2="1166.5625"/><line style="stroke:#181818;stroke-width:1.5625;" x1="738.2656" x2="750.7656" y1="1504.6875" y2="1495.3125"/><line style="stroke:#181818;stroke-width:1.5625;" x1="738.2656" x2="750.7656" y1="1504.6875" y2="1514.0625"/><line style="stroke:#181818;stroke-width:1.5625;" x1="738.2656" x2="750.7656" y1="1504.6875" y2="1504.6875"/><ellipse cx="728.8906" cy="1504.6875" fill="none" rx="6.25" ry="6.25" style="stroke:#181818;stroke-width:1.5625;"/><text fill="#000000" font-family="Arial" font-size="20.3125" lengthAdjust="spacing" textLength="104.6875" x="396.875" y="1480.0529">resource_id</text></g><!--link resources to schedule_overrides_history--><g id="link_resources_schedule_overrides_history"><path codeLine="99" d="M440.625,1179 C440.625,1343.6875 440.625,1625 440.625,1625 C440.625,1625 598.2813,1625 734.3438,1625 " fill="none" id="resources-schedule_overrides_history" style="stroke:#181818;stroke-width:1.5625;"/><line style="stroke:#181818;stroke-width:1.5625;" x1="434.375" x2="446.875" y1="1172.75" y2="1172.75"/><line style="stroke:#181818;stroke-width:1.5625;" x1="434.375" x2="446.875" y1="1177.4375" y2="1177.4375"/><line style="stroke:#181818;stroke-width:1.5625;" x1="440.625" x2="440.625" y1="1179" y2="1166.5"/><line style="stroke:#181818;stroke-width:1.5625;" x1="749.9688" x2="762.4688" y1="1625" y2="1615.625"/><line style="stroke:#181818;stroke-width:1.5625;" x1="749.9688" x2="762.4688" y1="1625" y2="1634.375"/><line style="stroke:#181818;stroke-width:1.5625;" x1="749.9688" x2="762.4688" y1="1625" y2="1625"/><ellipse cx="740.5938" cy="1625" fill="none" rx="6.25" ry="6.25" style="stroke:#181818;stroke-width:1.5625;"/><text fill="#000000" font-family="Arial" font-size="20.3125" lengthAdjust="spacing" textLength="104.6875" x="334.375" y="1577.2873">resource_id</text></g><!--SRC=[hLRRJkCm47tFLuow3tiHbIXifLM5a4AXsku2ozAo3_jYJHstiUhQbUqKHPH_nqxJ4fBq8i5Jf3CpcJEtato6IpNZaYiuxS0zeuasoa0AuOJ920F1nXQi0iqdiOM8QqOjLpA8USI0Saq52yoKopbgd869CLAFN4vWZC8KBO9BPjCv0wLjh0g6QCwXrJuk8coCYR0z9UqjpXY4cgCesET8fpXX0viA1fuFoiaR5anQRbDu2W0kdEz4gqH6NIMKXa-z7xsmr_KMfIEcS_Jqz7khtGwUWo1_EJHsTQMHlJjFqz3Cg4HJHdnzfW5eu2sKUGDy0nv11nuU-fTmTdRt-_myWvlDx66PH6b9qQMtTf6-3Htu5zvtVuRtNrh7nryTxjXMIRpD__xK8usInlKsNznXXDiPOG2Ahh-URmVwjyDjDH1S81SuuiB1H2UYtDMg_Q0wD_6rd2DCYHgJHyQcpZgu2Q-lLnm1Z4LjYULPKSF-pLM6kaseO0iKF29ZhMOElGo7HTHTqGQhhtka6KvBjQwmW-ghjAM-q4EhgUVeVLoVngKzpz4FcCEANeIM5UWCXk7DtV3_XkaEi-kNKRAmVIVjzjPp8ORf1NTFjM1QEqqhTRzYVlT1xIa-prU_eOb6BxuRDiH9L68TgVKv0SnraQvVkAjkt-so4usZaqeRA0glPvgOL5A2b3gbjAiMr9lUCzyZUFYREywrMZXwkZ2bjKHawQoQik88swqgTyoas6q25oan4kScLZdtUjE7Q8HbnSFsA-Y_R0xxDVXpUv610eqbhdqq4Suz8cWhM_hiFpMbZyHosMogfu9qTzO26xnY9QSw9UmKQmXsUPPVbajDfrP8Tf3O77zzwcf0zQfsHYwtBUEUV5lMO4k3ggIULREvNAvlqWU-dkS1SIiLoEQureCgnv5IxhzbGeIYqxq5hPrVXofSNAO9UsCDZLdaHxdXIM9khD9fAV85]--></g></svg>